<svg width="19" height="19" viewBox="0 0 19 19" fill="none" xmlns="http://www.w3.org/2000/svg">
<path fill-rule="evenodd" clip-rule="evenodd" d="M18.025 2.025L10.875 9.125L17.975 16.225C18.275 16.525 18.275 16.975 17.975 17.275L17.275 17.975C16.975 18.275 16.525 18.275 16.225 17.975L9.125 10.875L2.025 18.025C1.725 18.325 1.275 18.325 0.975 18.025L0.275 17.325C-0.0249998 17.025 -0.0249998 16.575 0.275 16.275L7.375 9.125L0.225 2.025C-0.075 1.725 -0.075 1.275 0.225 0.975L0.925 0.275C1.225 -0.0249998 1.675 -0.0249998 1.975 0.275L9.125 7.375L16.275 0.225C16.575 -0.075 17.025 -0.075 17.325 0.225L18.025 0.925C18.325 1.225 18.325 1.725 18.025 2.025Z" fill="white"/>
</svg>
