<svg width="20" height="20" viewBox="0 0 20 20" fill="none" xmlns="http://www.w3.org/2000/svg">
<mask id="path-1-inside-1" fill="white">
<path d="M16.837 11.9225C16.3992 11.4696 15.8732 11.2276 15.316 11.2276C14.7615 11.2276 14.2299 11.4654 13.7764 11.9168L12.3548 13.3291C12.2369 13.2654 12.1203 13.2074 12.008 13.1494C11.8459 13.0687 11.6924 12.9937 11.5616 12.9116C10.2296 12.0696 9.01844 10.9729 7.85845 9.55211C7.29551 8.84455 6.91738 8.24878 6.64302 7.64311C7.01262 7.30772 7.3538 6.95818 7.68644 6.62138C7.81296 6.49685 7.93948 6.36666 8.06458 6.24071C9.00991 5.29965 9.00991 4.08123 8.06458 3.14158L6.83635 1.9175C6.69703 1.77882 6.55204 1.63447 6.41841 1.49296C6.14831 1.21418 5.864 0.926909 5.57116 0.658034C5.13474 0.229251 4.61303 0 4.0643 0C3.51558 0 2.98392 0.229251 2.53328 0.659449L2.52475 0.66794L0.995154 2.20477C0.427335 2.75875 0.0803853 3.49878 0.0185415 4.28784C-0.0894971 5.59542 0.297167 6.81384 0.594274 7.61197C1.32353 9.56909 2.41245 11.3847 4.03729 13.3291C5.96716 15.6406 8.37122 17.5146 11.0882 18.8254C12.1246 19.3137 13.5049 19.8925 15.0501 19.9901C15.1439 19.9943 15.2435 20 15.3344 20C16.3722 20 17.2464 19.6278 17.9302 18.8877C17.9345 18.8792 17.9444 18.8736 17.9473 18.8665C18.1818 18.5835 18.4519 18.3287 18.7362 18.0556C18.9296 17.8716 19.1272 17.6792 19.3205 17.4768C19.7654 17.0155 20 16.4777 20 15.9273C20 15.3711 19.7612 14.8376 19.3077 14.3904L16.837 11.9225ZM18.4477 16.6391C18.4434 16.6433 18.4434 16.6391 18.4477 16.6391C18.2728 16.8273 18.0923 16.9971 17.8989 17.1853C17.5937 17.4689 17.3038 17.7684 17.0304 18.0825C16.5755 18.5651 16.0395 18.7943 15.3387 18.7943C15.2705 18.7943 15.198 18.7943 15.1312 18.7901C13.7949 18.7052 12.5524 18.1844 11.6199 17.7415C9.06116 16.505 6.79691 14.7392 4.97837 12.5621C3.44308 10.7224 2.41671 9.01861 1.73721 7.19026C1.32069 6.07514 1.16574 5.20625 1.2354 4.3869C1.27947 3.8633 1.48275 3.42744 1.8552 3.05668L3.39048 1.52834C3.61083 1.32173 3.84538 1.20993 4.07425 1.20993C4.35857 1.20993 4.58744 1.37975 4.73102 1.52409L4.74523 1.53824C5.01959 1.79297 5.28116 2.05618 5.55552 2.33921C5.69483 2.48213 5.83983 2.62506 5.98199 2.77365L7.21164 3.99632C7.68786 4.4718 7.68786 4.91049 7.21164 5.38598C7.08086 5.51475 6.95576 5.64494 6.82498 5.77089C6.44684 6.15581 6.08576 6.51383 5.69483 6.86337C5.68631 6.87328 5.67635 6.87752 5.67209 6.88601C5.28542 7.27093 5.3565 7.64735 5.43753 7.90349L5.45175 7.94311C5.7716 8.71436 6.22081 9.44032 6.906 10.305L6.91027 10.3092C8.15129 11.8319 9.46197 13.0192 10.9063 13.9291C11.0911 14.0451 11.2801 14.14 11.4607 14.2291C11.6213 14.3098 11.7749 14.3848 11.9056 14.4669C11.9227 14.4753 11.9412 14.4895 11.9597 14.498C12.0968 14.5702 12.2494 14.6085 12.4046 14.6098C12.7785 14.6098 13.013 14.3763 13.0884 14.3013L14.6265 12.7687C14.78 12.6159 15.0231 12.4319 15.306 12.4319C15.5861 12.4319 15.8149 12.6074 15.9542 12.7602L15.9628 12.7687L18.4434 15.2367C18.9068 15.6938 18.9068 16.165 18.4477 16.6391Z"/>
</mask>
<path d="M16.837 11.9225C16.3992 11.4696 15.8732 11.2276 15.316 11.2276C14.7615 11.2276 14.2299 11.4654 13.7764 11.9168L12.3548 13.3291C12.2369 13.2654 12.1203 13.2074 12.008 13.1494C11.8459 13.0687 11.6924 12.9937 11.5616 12.9116C10.2296 12.0696 9.01844 10.9729 7.85845 9.55211C7.29551 8.84455 6.91738 8.24878 6.64302 7.64311C7.01262 7.30772 7.3538 6.95818 7.68644 6.62138C7.81296 6.49685 7.93948 6.36666 8.06458 6.24071C9.00991 5.29965 9.00991 4.08123 8.06458 3.14158L6.83635 1.9175C6.69703 1.77882 6.55204 1.63447 6.41841 1.49296C6.14831 1.21418 5.864 0.926909 5.57116 0.658034C5.13474 0.229251 4.61303 0 4.0643 0C3.51558 0 2.98392 0.229251 2.53328 0.659449L2.52475 0.66794L0.995154 2.20477C0.427335 2.75875 0.0803853 3.49878 0.0185415 4.28784C-0.0894971 5.59542 0.297167 6.81384 0.594274 7.61197C1.32353 9.56909 2.41245 11.3847 4.03729 13.3291C5.96716 15.6406 8.37122 17.5146 11.0882 18.8254C12.1246 19.3137 13.5049 19.8925 15.0501 19.9901C15.1439 19.9943 15.2435 20 15.3344 20C16.3722 20 17.2464 19.6278 17.9302 18.8877C17.9345 18.8792 17.9444 18.8736 17.9473 18.8665C18.1818 18.5835 18.4519 18.3287 18.7362 18.0556C18.9296 17.8716 19.1272 17.6792 19.3205 17.4768C19.7654 17.0155 20 16.4777 20 15.9273C20 15.3711 19.7612 14.8376 19.3077 14.3904L16.837 11.9225ZM18.4477 16.6391C18.4434 16.6433 18.4434 16.6391 18.4477 16.6391C18.2728 16.8273 18.0923 16.9971 17.8989 17.1853C17.5937 17.4689 17.3038 17.7684 17.0304 18.0825C16.5755 18.5651 16.0395 18.7943 15.3387 18.7943C15.2705 18.7943 15.198 18.7943 15.1312 18.7901C13.7949 18.7052 12.5524 18.1844 11.6199 17.7415C9.06116 16.505 6.79691 14.7392 4.97837 12.5621C3.44308 10.7224 2.41671 9.01861 1.73721 7.19026C1.32069 6.07514 1.16574 5.20625 1.2354 4.3869C1.27947 3.8633 1.48275 3.42744 1.8552 3.05668L3.39048 1.52834C3.61083 1.32173 3.84538 1.20993 4.07425 1.20993C4.35857 1.20993 4.58744 1.37975 4.73102 1.52409L4.74523 1.53824C5.01959 1.79297 5.28116 2.05618 5.55552 2.33921C5.69483 2.48213 5.83983 2.62506 5.98199 2.77365L7.21164 3.99632C7.68786 4.4718 7.68786 4.91049 7.21164 5.38598C7.08086 5.51475 6.95576 5.64494 6.82498 5.77089C6.44684 6.15581 6.08576 6.51383 5.69483 6.86337C5.68631 6.87328 5.67635 6.87752 5.67209 6.88601C5.28542 7.27093 5.3565 7.64735 5.43753 7.90349L5.45175 7.94311C5.7716 8.71436 6.22081 9.44032 6.906 10.305L6.91027 10.3092C8.15129 11.8319 9.46197 13.0192 10.9063 13.9291C11.0911 14.0451 11.2801 14.14 11.4607 14.2291C11.6213 14.3098 11.7749 14.3848 11.9056 14.4669C11.9227 14.4753 11.9412 14.4895 11.9597 14.498C12.0968 14.5702 12.2494 14.6085 12.4046 14.6098C12.7785 14.6098 13.013 14.3763 13.0884 14.3013L14.6265 12.7687C14.78 12.6159 15.0231 12.4319 15.306 12.4319C15.5861 12.4319 15.8149 12.6074 15.9542 12.7602L15.9628 12.7687L18.4434 15.2367C18.9068 15.6938 18.9068 16.165 18.4477 16.6391Z" fill="#ED1C24"/>
<path d="M16.837 11.9225L11.8046 16.7881L11.8469 16.8319L11.89 16.8749L16.837 11.9225ZM13.7764 11.9168L18.71 16.8827L18.7149 16.8778L13.7764 11.9168ZM12.3548 13.3291L9.03016 19.4892L13.6025 21.9569L17.2884 18.295L12.3548 13.3291ZM12.008 13.1494L15.221 6.93032L15.1742 6.90616L15.1271 6.88272L12.008 13.1494ZM11.5616 12.9116L7.82133 18.8286L7.83097 18.8347L7.84062 18.8407L11.5616 12.9116ZM7.85845 9.55211L2.38063 13.9103L2.40817 13.9449L2.43613 13.9791L7.85845 9.55211ZM6.64302 7.64311L1.93907 2.4592L-1.83755 5.88615L0.266706 10.5315L6.64302 7.64311ZM7.68644 6.62138L2.77604 1.6326L2.74081 1.66728L2.70607 1.70245L7.68644 6.62138ZM8.06458 6.24071L3.12607 1.27975L3.11205 1.2937L3.09812 1.30773L8.06458 6.24071ZM8.06458 3.14158L3.12319 8.09969L3.1298 8.10626L8.06458 3.14158ZM6.83635 1.9175L11.7777 -3.04061L11.7749 -3.04346L6.83635 1.9175ZM6.41841 1.49296L11.5079 -3.31294L11.4771 -3.34561L11.4458 -3.37787L6.41841 1.49296ZM5.57116 0.658034L0.665284 5.65127L0.749721 5.73423L0.836914 5.81429L5.57116 0.658034ZM2.53328 0.659449L-2.30033 -4.40377L-2.35333 -4.35317L-2.40526 -4.30148L2.53328 0.659449ZM2.52475 0.66794L-2.41379 -4.29298L-2.42525 -4.28158L-2.43665 -4.27012L2.52475 0.66794ZM0.995154 2.20477L5.88348 7.21519L5.92028 7.17928L5.95656 7.14283L0.995154 2.20477ZM0.0185415 4.28784L6.99477 4.86425L6.99599 4.84953L6.99714 4.8348L0.0185415 4.28784ZM0.594274 7.61197L-5.96594 10.054L-5.96515 10.0561L0.594274 7.61197ZM4.03729 13.3291L9.41071 8.84284L9.40869 8.84043L4.03729 13.3291ZM11.0882 18.8254L8.04654 25.1301L8.07569 25.1441L8.10496 25.1579L11.0882 18.8254ZM15.0501 19.9901L14.6087 26.9762L14.6712 26.9801L14.7337 26.9829L15.0501 19.9901ZM17.9302 18.8877L23.0718 23.6379L23.7421 22.9123L24.1855 22.0296L17.9302 18.8877ZM17.9473 18.8665L12.5576 14.3998L11.8598 15.2418L11.452 16.2566L17.9473 18.8665ZM18.7362 18.0556L13.9108 12.9846L13.8988 12.996L13.8868 13.0075L18.7362 18.0556ZM19.3205 17.4768L14.2821 12.6174L14.2706 12.6293L14.2591 12.6413L19.3205 17.4768ZM19.3077 14.3904L14.3607 19.3429L14.3766 19.3588L14.3927 19.3747L19.3077 14.3904ZM17.8989 17.1853L22.6639 22.3132L22.7235 22.2578L22.7818 22.201L17.8989 17.1853ZM17.0304 18.0825L22.1239 22.8841L22.219 22.7832L22.3101 22.6786L17.0304 18.0825ZM15.1312 18.7901L14.6873 25.776L15.1312 18.7901ZM11.6199 17.7415L8.57415 24.0441L8.59536 24.0544L8.61663 24.0645L11.6199 17.7415ZM4.97837 12.5621L-0.395976 17.0472L-0.393964 17.0496L4.97837 12.5621ZM1.73721 7.19026L8.29872 4.75167L8.2947 4.74092L1.73721 7.19026ZM1.2354 4.3869L8.21024 4.97985L8.21074 4.97397L1.2354 4.3869ZM1.8552 3.05668L-3.08331 -1.90428L-3.08331 -1.90428L1.8552 3.05668ZM3.39048 1.52834L-1.39757 -3.57798L-1.47389 -3.50643L-1.54803 -3.43262L3.39048 1.52834ZM4.73102 1.52409L-0.231872 6.46067L-0.219721 6.47288L-0.20751 6.48504L4.73102 1.52409ZM4.74523 1.53824L-0.193294 6.49919L-0.106876 6.58522L-0.0175142 6.66818L4.74523 1.53824ZM5.55552 2.33921L0.529439 7.21142L0.536104 7.2183L0.542788 7.22516L5.55552 2.33921ZM5.98199 2.77365L0.923974 7.61271L0.984383 7.67585L1.04635 7.73747L5.98199 2.77365ZM7.21164 3.99632L12.1575 -0.957274L12.1524 -0.96239L12.1473 -0.967495L7.21164 3.99632ZM7.21164 5.38598L12.123 10.3738L12.1403 10.3568L12.1575 10.3396L7.21164 5.38598ZM6.82498 5.77089L1.96935 0.728776L1.89945 0.79609L1.83145 0.865315L6.82498 5.77089ZM5.69483 6.86337L1.02907 1.64507L0.688423 1.94965L0.390265 2.29593L5.69483 6.86337ZM5.67209 6.88601L10.6106 11.847L11.4168 11.0444L11.9274 10.0279L5.67209 6.88601ZM5.43753 7.90349L-1.23647 10.0148L-1.19628 10.1419L-1.15127 10.2673L5.43753 7.90349ZM5.45175 7.94311L-1.13705 10.3069L-1.07952 10.4673L-1.01425 10.6247L5.45175 7.94311ZM6.906 10.305L1.41979 14.6525L1.67554 14.9753L1.96736 15.2658L6.906 10.305ZM6.91027 10.3092L12.3364 5.8868L12.1066 5.60493L11.8489 5.34838L6.91027 10.3092ZM10.9063 13.9291L7.17497 19.8517L7.18387 19.8573L10.9063 13.9291ZM11.4607 14.2291L14.6019 7.97349L14.581 7.96301L14.5601 7.95268L11.4607 14.2291ZM11.9056 14.4669L8.18464 20.3959L8.47723 20.5796L8.78649 20.7335L11.9056 14.4669ZM11.9597 14.498L15.2188 8.30297L15.0527 8.21558L14.8821 8.13722L11.9597 14.498ZM12.4046 14.6098L12.3468 21.6095L12.3757 21.6098H12.4046L12.4046 14.6098ZM13.0884 14.3013L18.0269 19.2622L18.0292 19.26L13.0884 14.3013ZM14.6265 12.7687L9.68799 7.80774L9.6857 7.81002L14.6265 12.7687ZM15.9542 12.7602L10.781 17.4758L10.8952 17.6011L11.0153 17.7207L15.9542 12.7602ZM15.9628 12.7687L11.0238 17.7292L11.0257 17.7311L15.9628 12.7687ZM18.4434 15.2367L13.5063 20.1991L13.5171 20.2098L13.5279 20.2204L18.4434 15.2367ZM21.8694 7.05675C20.317 5.45119 18.0457 4.22762 15.316 4.22762V18.2276C13.7007 18.2276 12.4813 17.488 11.8046 16.7881L21.8694 7.05675ZM15.316 4.22762C12.6259 4.22762 10.3867 5.41405 8.8379 6.95583L18.7149 16.8778C18.0731 17.5167 16.8972 18.2276 15.316 18.2276V4.22762ZM8.84287 6.95089L7.42131 8.36319L17.2884 18.295L18.7099 16.8827L8.84287 6.95089ZM15.6795 7.16902C15.5574 7.10311 15.4489 7.04708 15.3744 7.00885C15.2687 6.95464 15.2733 6.95733 15.221 6.93032L8.79498 19.3684C8.83791 19.3906 8.878 19.4111 8.90826 19.4266C8.94253 19.4441 8.96211 19.454 8.98416 19.4654C9.02549 19.4866 9.03429 19.4914 9.03016 19.4892L15.6795 7.16902ZM15.1271 6.88272C15.1088 6.87358 15.077 6.8578 15.0654 6.85202C15.0477 6.84322 15.035 6.83686 15.0244 6.83155C15.0022 6.82046 15.0004 6.81939 15.009 6.82389C15.0181 6.82861 15.0479 6.84426 15.0914 6.86868C15.1349 6.89311 15.201 6.93133 15.2826 6.98253L7.84062 18.8407C8.33337 19.15 8.85579 19.3996 8.88884 19.416L15.1271 6.88272ZM15.3019 6.99468C14.6969 6.61221 14.0361 6.05021 13.2808 5.1251L2.43613 13.9791C4.00081 15.8956 5.76237 17.527 7.82133 18.8286L15.3019 6.99468ZM13.3363 5.19396C13.1736 4.98953 13.089 4.86552 13.0486 4.80191C13.0124 4.74509 13.0101 4.73431 13.0193 4.75474L0.266706 10.5315C0.843449 11.8047 1.57139 12.8931 2.38063 13.9103L13.3363 5.19396ZM11.347 12.827C11.8903 12.334 12.3833 11.8273 12.6668 11.5403L2.70607 1.70245C2.32426 2.08903 2.13498 2.28142 1.93907 2.4592L11.347 12.827ZM12.5968 11.6102C12.7566 11.453 12.9833 11.2217 13.031 11.1737L3.09812 1.30773C2.89561 1.51162 2.86936 1.54074 2.77604 1.6326L12.5968 11.6102ZM13.0031 11.2017C14.5655 9.64636 15.7736 7.39345 15.7736 4.69062C15.7736 1.98704 14.5648 -0.267117 12.9994 -1.82309L3.1298 8.10626C2.50974 7.48993 1.77358 6.3148 1.77358 4.69062C1.77358 3.06718 2.50902 1.894 3.12607 1.27975L13.0031 11.2017ZM13.006 -1.81652L11.7777 -3.04061L1.89497 6.8756L3.1232 8.09969L13.006 -1.81652ZM11.7749 -3.04346C11.6206 -3.19698 11.5542 -3.26395 11.5079 -3.31294L1.32888 6.29886C1.54987 6.5329 1.77343 6.75461 1.89784 6.87846L11.7749 -3.04346ZM11.4458 -3.37787C11.1505 -3.68274 10.7523 -4.08788 10.3054 -4.49822L0.836914 5.81429C0.975686 5.9417 1.14616 6.1111 1.39098 6.36379L11.4458 -3.37787ZM10.477 -4.3352C8.90954 -5.87527 6.68338 -7 4.0643 -7V7C2.54268 7 1.35994 6.33377 0.665284 5.65127L10.477 -4.3352ZM4.0643 -7C1.46507 -7 -0.740464 -5.8929 -2.30033 -4.40377L7.36689 5.72267C6.7083 6.3514 5.56609 7 4.0643 7V-7ZM-2.40526 -4.30148L-2.41379 -4.29298L7.4633 5.62887L7.47183 5.62037L-2.40526 -4.30148ZM-2.43665 -4.27012L-3.96625 -2.7333L5.95656 7.14283L7.48616 5.606L-2.43665 -4.27012ZM-3.89317 -2.80565C-5.67273 -1.06945 -6.76526 1.25552 -6.96006 3.74088L6.99714 4.8348C6.92603 5.74204 6.5274 6.58695 5.88348 7.21519L-3.89317 -2.80565ZM-6.95769 3.71143C-7.19777 6.61715 -6.34374 9.03911 -5.96594 10.054L7.15449 5.16992C7.10985 5.05 7.07705 4.95491 7.05138 4.87188C7.02571 4.78886 7.01079 4.72936 7.00248 4.69011C6.99411 4.65061 6.99527 4.64488 6.9973 4.66938C6.99937 4.69439 7.00324 4.76178 6.99477 4.86425L-6.95769 3.71143ZM-5.96515 10.0561C-4.91059 12.8863 -3.37149 15.3797 -1.3341 17.8177L9.40869 8.84043C8.19639 7.38971 7.55766 6.25191 7.1537 5.16781L-5.96515 10.0561ZM-1.33612 17.8153C1.23385 20.8935 4.43336 23.3869 8.04654 25.1301L14.1299 12.5208C12.3091 11.6424 10.7005 10.3877 9.41071 8.84284L-1.33612 17.8153ZM8.10496 25.1579C9.3005 25.7211 11.6792 26.7911 14.6087 26.9762L15.4916 13.004C15.4494 13.0014 15.3111 12.9848 15.0501 12.8996C14.7846 12.813 14.4809 12.6858 14.0715 12.493L8.10496 25.1579ZM14.7337 26.9829C14.7487 26.9836 14.7568 26.984 14.792 26.9857C14.8199 26.987 14.8623 26.989 14.9097 26.9909C14.9994 26.9945 15.1532 27 15.3344 27V13C15.383 13 15.4202 13.0007 15.4419 13.0013C15.4638 13.0018 15.477 13.0024 15.477 13.0024C15.4774 13.0024 15.4757 13.0023 15.4711 13.0021C15.4664 13.0019 15.4601 13.0016 15.4506 13.0012C15.4459 13.001 15.4409 13.0007 15.435 13.0004C15.4294 13.0002 15.4226 12.9999 15.4158 12.9995C15.4022 12.9989 15.3851 12.9981 15.3665 12.9973L14.7337 26.9829ZM15.3344 27C18.2401 27 21.0066 25.8733 23.0718 23.6379L12.7886 14.1375C13.0746 13.828 13.486 13.5105 14.0118 13.2856C14.5321 13.063 15.0025 13 15.3344 13V27ZM24.1855 22.0296C23.8445 22.7084 23.4645 23.1867 23.2432 23.4442C23.1275 23.5788 23.0292 23.6827 22.9704 23.7436C22.9162 23.7996 22.8689 23.8464 22.8775 23.8378C22.8775 23.8378 22.8777 23.8376 22.878 23.8373C22.8783 23.837 22.8788 23.8365 22.8793 23.836C22.8804 23.8349 22.8821 23.8332 22.8843 23.8311C22.8884 23.8269 22.8952 23.8202 22.9035 23.8118C22.9197 23.7955 22.947 23.7679 22.9805 23.7332C23.0438 23.6675 23.1587 23.5461 23.2937 23.3861C23.4286 23.2262 23.6151 22.991 23.8118 22.6889C24.0096 22.3852 24.2404 21.9794 24.4425 21.4764L11.452 16.2566C11.6534 15.7553 11.8833 15.3513 12.08 15.0493C12.2756 14.7488 12.4608 14.5153 12.5943 14.357C12.7279 14.1988 12.8413 14.079 12.903 14.015C12.9606 13.9552 13.0115 13.905 13.0011 13.9153C13.0011 13.9153 13.0008 13.9156 13.0005 13.9158C13.0002 13.9161 12.9998 13.9166 12.9992 13.9171C12.9982 13.9182 12.9964 13.9199 12.9944 13.922C12.9903 13.9261 12.9837 13.9326 12.9756 13.9407C12.9599 13.9566 12.9343 13.9825 12.9031 14.0147C12.8426 14.0773 12.7426 14.183 12.6254 14.3194C12.4009 14.5806 12.018 15.0627 11.6749 15.7458L24.1855 22.0296ZM23.3369 23.3332C23.2741 23.4091 23.2433 23.4369 23.288 23.3918C23.3095 23.3703 23.3413 23.3389 23.3927 23.2892C23.4503 23.2335 23.4995 23.1865 23.5856 23.1037L13.8868 13.0075C13.7048 13.1824 13.1021 13.7427 12.5576 14.3998L23.3369 23.3332ZM23.5616 23.1267C23.7912 22.9082 24.0788 22.6296 24.3819 22.3123L14.2591 12.6413C14.1756 12.7287 14.0679 12.8351 13.9108 12.9846L23.5616 23.1267ZM24.3589 22.3363C25.8516 20.7886 27 18.5727 27 15.9273H13C13 14.3828 13.6792 13.2424 14.2821 12.6174L24.3589 22.3363ZM27 15.9273C27 13.2386 25.8137 10.9751 24.2227 9.4062L14.3927 19.3747C13.7087 18.7002 13 17.5037 13 15.9273H27ZM24.2548 9.43799L21.7841 6.97001L11.89 16.8749L14.3607 19.3429L24.2548 9.43799ZM18.4477 9.63907C17.2883 9.63907 15.9776 9.93073 14.7474 10.6961C14.1523 11.0664 13.4802 11.6093 12.8859 12.3857C12.4049 13.0142 11.4445 14.4936 11.4445 16.6407C11.4445 17.8235 11.7528 19.3158 12.7485 20.7097C13.7602 22.1259 15.1239 22.9388 16.3653 23.325C18.5522 24.0053 20.3302 23.4091 20.8934 23.1988C22.2752 22.683 23.1203 21.8647 23.3862 21.6L13.5091 11.6781C13.7729 11.4156 14.6164 10.5983 15.9972 10.0829C16.5598 9.87286 18.3374 9.27668 20.524 9.95689C21.7653 10.3431 23.1289 11.1558 24.1405 12.5719C25.1361 13.9657 25.4445 15.4579 25.4445 16.6407C25.4445 18.7875 24.4841 20.2666 24.0034 20.8947C23.4094 21.6707 22.7377 22.2133 22.1432 22.5832C20.914 23.3479 19.6049 23.6391 18.4477 23.6391V9.63907ZM13.3192 11.8747C13.333 11.8599 13.3275 11.8668 13.2759 11.9174C13.2498 11.9431 13.2192 11.9728 13.174 12.0165C13.1338 12.0554 13.0744 12.1128 13.0161 12.1696L22.7818 22.201C22.8621 22.1229 23.2441 21.7608 23.5761 21.4035L13.3192 11.8747ZM13.134 12.0574C12.648 12.509 12.1862 12.986 11.7506 13.4864L22.3101 22.6786C22.4214 22.5508 22.5394 22.4288 22.6639 22.3132L13.134 12.0574ZM11.9368 13.2809C12.2908 12.9053 12.8275 12.4775 13.5527 12.1712C14.269 11.8685 14.9091 11.7943 15.3387 11.7943V25.7943C17.8884 25.7943 20.293 24.8264 22.1239 22.8841L11.9368 13.2809ZM15.3387 11.7943C15.2958 11.7943 15.3136 11.7942 15.3404 11.7946C15.3696 11.795 15.4562 11.7966 15.575 11.8042L14.6873 25.776C15.016 25.7969 15.3178 25.7943 15.3387 25.7943V11.7943ZM15.575 11.8042C15.6591 11.8095 15.6175 11.8186 15.4186 11.7529C15.2205 11.6875 14.9732 11.5847 14.6232 11.4185L8.61663 24.0645C9.69559 24.5769 11.9489 25.602 14.6873 25.776L15.575 11.8042ZM14.6656 11.4388C13.0009 10.6343 11.5303 9.48672 10.3507 8.07455L-0.393964 17.0496C2.06352 19.9916 5.12141 22.3756 8.57415 24.0441L14.6656 11.4388ZM10.3527 8.07695C9.21764 6.71686 8.64796 5.69141 8.29871 4.75168L-4.82429 9.62885C-3.81453 12.3458 -2.33148 14.728 -0.395975 17.0472L10.3527 8.07695ZM8.2947 4.74092C8.19161 4.46493 8.18394 4.38539 8.19466 4.44531C8.2008 4.47966 8.21108 4.54893 8.21622 4.64682C8.22143 4.74611 8.22051 4.85898 8.21024 4.97985L-5.73944 3.79394C-5.92682 5.99807 -5.45108 7.95081 -4.82029 9.6396L8.2947 4.74092ZM8.21074 4.97397C8.16955 5.46338 8.04043 6.03462 7.76693 6.62147C7.49352 7.20812 7.13978 7.67313 6.79371 8.01764L-3.08331 -1.90428C-4.62944 -0.365155 -5.55647 1.61993 -5.73994 3.79982L8.21074 4.97397ZM6.79371 8.01764L8.32899 6.4893L-1.54803 -3.43262L-3.08331 -1.90428L6.79371 8.01764ZM8.17854 6.63466C7.5862 7.19008 6.19272 8.20993 4.07425 8.20993V-5.79007C1.49805 -5.79007 -0.364546 -4.54662 -1.39757 -3.57798L8.17854 6.63466ZM4.07425 8.20993C2.78879 8.20993 1.76812 7.82138 1.09863 7.45552C0.450924 7.10157 0.0139648 6.70781 -0.231872 6.46067L9.6939 -3.41248C9.08785 -4.02176 7.15528 -5.79007 4.07425 -5.79007V8.20993ZM-0.20751 6.48504L-0.193294 6.49919L9.68376 -3.4227L9.66954 -3.43685L-0.20751 6.48504ZM-0.0175142 6.66818C0.124379 6.79992 0.287534 6.96188 0.529439 7.21142L10.5816 -2.53301C10.2748 -2.84952 9.91481 -3.21398 9.50798 -3.59169L-0.0175142 6.66818ZM0.542788 7.22516C0.8535 7.54393 0.771111 7.45293 0.923974 7.61271L11.04 -2.06541C10.9255 -2.18509 10.8187 -2.29323 10.7428 -2.36994C10.6548 -2.4589 10.6133 -2.5005 10.5683 -2.54674L0.542788 7.22516ZM1.04635 7.73747L2.276 8.96014L12.1473 -0.967495L10.9176 -2.19017L1.04635 7.73747ZM2.26574 8.94992C1.84153 8.52636 0.568807 7.0754 0.568807 4.69115C0.568807 2.3069 1.84153 0.855935 2.26574 0.432381L12.1575 10.3396C13.058 9.44053 14.5688 7.53248 14.5688 4.69115C14.5688 1.84981 13.058 -0.0582373 12.1575 -0.957274L2.26574 8.94992ZM2.30031 0.398104C2.19956 0.497311 2.09751 0.600552 2.05246 0.645898C1.99249 0.706262 1.97498 0.723354 1.96935 0.728776L11.6806 10.813C11.8058 10.6925 11.9162 10.5815 11.9842 10.5131C12.067 10.4297 12.0929 10.4034 12.123 10.3738L2.30031 0.398104ZM1.83145 0.865315C1.48668 1.21626 1.25028 1.44728 1.02907 1.64507L10.3606 12.0817C10.9212 11.5804 11.407 11.0953 11.8185 10.6765L1.83145 0.865315ZM0.390265 2.29593C0.666636 1.97495 0.91931 1.74133 1.07942 1.60127C1.15711 1.5333 1.21938 1.48199 1.24479 1.46114C1.25676 1.45132 1.26742 1.44266 1.26412 1.44534C1.26392 1.44551 1.2604 1.44837 1.25616 1.45183C1.25165 1.45551 1.24455 1.46132 1.23587 1.46845C1.19908 1.49871 0.921322 1.72342 0.610695 2.04911C0.272437 2.40378 -0.19109 2.96347 -0.583204 3.74415L11.9274 10.0279C11.5374 10.8043 11.0767 11.3603 10.7418 11.7115C10.4345 12.0337 10.1606 12.2551 10.1279 12.282C10.1197 12.2887 10.1131 12.2941 10.1091 12.2973C10.1071 12.299 10.1054 12.3004 10.1044 12.3012C10.1039 12.3016 10.1035 12.302 10.1032 12.3022C10.1029 12.3024 10.1027 12.3026 10.1027 12.3026C10.1005 12.3044 10.1122 12.2949 10.1252 12.2842C10.1528 12.2615 10.2173 12.2084 10.2971 12.1385C10.4617 11.9946 10.7188 11.7567 10.9994 11.4308L0.390265 2.29593ZM0.73358 1.92505C-0.514686 3.16767 -1.35799 4.79505 -1.57292 6.62766C-1.76564 8.27085 -1.38149 9.5564 -1.23647 10.0148L12.1115 5.79217C12.1755 5.99444 12.4836 6.9637 12.3318 8.25842C12.1577 9.74255 11.4722 10.9893 10.6106 11.847L0.73358 1.92505ZM-1.15127 10.2673L-1.13705 10.3069L12.0405 5.57928L12.0263 5.53965L-1.15127 10.2673ZM-1.01425 10.6247C-0.376938 12.1614 0.463334 13.4456 1.41979 14.6525L12.3922 5.95737C12.1773 5.68613 12.0622 5.51556 12.0007 5.41574C11.9452 5.32584 11.9263 5.2821 11.9177 5.26153L-1.01425 10.6247ZM1.96736 15.2658L1.97163 15.27L11.8489 5.34838L11.8446 5.34413L1.96736 15.2658ZM1.48419 14.7316C3.13405 16.7559 4.9995 18.4811 7.17497 19.8517L14.6376 8.00649C13.9244 7.5572 13.1685 6.90785 12.3364 5.8868L1.48419 14.7316ZM7.18387 19.8573C7.70466 20.1843 8.18555 20.4188 8.36127 20.5055L14.5601 7.95268C14.5199 7.93283 14.4972 7.9215 14.4803 7.91297C14.4645 7.90501 14.4621 7.90362 14.4682 7.90686C14.4793 7.91277 14.54 7.94521 14.6287 8.00089L7.18387 19.8573ZM8.31947 20.4847C8.34368 20.4969 8.36839 20.5093 8.38569 20.5179C8.40495 20.5276 8.41866 20.5344 8.43067 20.5405C8.45545 20.553 8.45901 20.5549 8.45236 20.5514C8.44518 20.5477 8.41661 20.5327 8.37424 20.5089C8.33184 20.485 8.26614 20.4471 8.18464 20.3959L15.6266 8.53775C15.1415 8.23327 14.6126 7.97887 14.6019 7.97349L8.31947 20.4847ZM8.78649 20.7335C8.66879 20.6749 8.57 20.6215 8.49464 20.5794C8.41921 20.5372 8.35778 20.5009 8.3159 20.4758C8.27441 20.4509 8.24255 20.4311 8.22939 20.4229C8.22243 20.4186 8.21725 20.4154 8.21685 20.4151C8.21373 20.4132 8.22043 20.4174 8.22373 20.4194C8.23278 20.4251 8.26035 20.4423 8.29522 20.4635C8.33096 20.4853 8.38328 20.5168 8.44697 20.5536C8.5683 20.6236 8.77361 20.7376 9.0372 20.8587L14.8821 8.13722C15.0127 8.19722 15.1252 8.25388 15.2167 8.30211C15.3083 8.35036 15.3854 8.39371 15.4447 8.42789C15.5038 8.46199 15.5515 8.49074 15.5827 8.50974C15.613 8.52822 15.636 8.5426 15.6405 8.54543C15.6415 8.54607 15.646 8.54884 15.6406 8.54549C15.6379 8.54383 15.6305 8.53918 15.6213 8.53346C15.6037 8.52249 15.5674 8.49999 15.5214 8.47244C15.4751 8.44464 15.4093 8.40582 15.3295 8.36118C15.2498 8.3166 15.1467 8.2609 15.0248 8.2002L8.78649 20.7335ZM8.70055 20.693C9.82645 21.2853 11.0768 21.5991 12.3468 21.6095L12.4624 7.61002C13.4221 7.61794 14.3672 7.85499 15.2188 8.30297L8.70055 20.693ZM12.4046 21.6098C15.8099 21.6098 17.8233 19.4649 18.0269 19.2622L8.14986 9.34032C8.14128 9.34886 8.18668 9.30334 8.24528 9.24797C8.30667 9.18996 8.38814 9.11557 8.487 9.03212C8.68227 8.86729 8.95343 8.66014 9.30051 8.45529C10.0093 8.03695 11.0746 7.60978 12.4046 7.60978L12.4046 21.6098ZM18.0292 19.26L19.5673 17.7274L9.6857 7.81002L8.14757 9.3426L18.0292 19.26ZM19.565 17.7297C19.3583 17.9355 18.9603 18.2993 18.3587 18.6389C17.7525 18.9811 16.6984 19.4319 15.306 19.4319V5.4319C12.1228 5.4319 10.1507 7.34708 9.68799 7.80774L19.565 17.7297ZM15.306 19.4319C13.9507 19.4319 12.884 19.0037 12.1965 18.6087C11.5279 18.2248 11.0689 17.7917 10.781 17.4758L21.1275 8.04459C20.4725 7.32593 18.5012 5.4319 15.306 5.4319V19.4319ZM11.0153 17.7207L11.0238 17.7292L20.9017 7.80818L20.8932 7.79969L11.0153 17.7207ZM11.0257 17.7311L13.5063 20.1991L23.3805 10.2743L20.8999 7.80632L11.0257 17.7311ZM13.5279 20.2204C12.9489 19.6494 11.7966 18.2019 11.7915 15.9474C11.7865 13.7251 12.9026 12.3027 13.4195 11.769L23.4758 21.5092C24.4519 20.5014 25.7976 18.6063 25.7915 15.9156C25.7853 13.1928 24.4013 11.281 23.3589 10.2529L13.5279 20.2204Z" fill="#ED1C24" mask="url(#path-1-inside-1)"/>
</svg>
