<svg width="10" height="6" viewBox="0 0 10 6" fill="none" xmlns="http://www.w3.org/2000/svg">
<path d="M1.42578 5.37578L1.07422 5.02422L5 1.09843L8.92578 5.02422L8.57422 5.37578L5 1.80156L1.42578 5.37578Z" fill="white"/>
<path d="M1.42578 5.37578L1.25608 5.54548L1.42578 5.71519L1.59549 5.54548L1.42578 5.37578ZM1.07422 5.02422L0.904513 4.85451L0.734808 5.02421L0.904513 5.19392L1.07422 5.02422ZM5 1.09843L5.16971 0.928728L5 0.759023L4.83029 0.928728L5 1.09843ZM8.92578 5.02422L9.09549 5.19392L9.26519 5.02422L9.09549 4.85451L8.92578 5.02422ZM8.57422 5.37578L8.40451 5.54548L8.57422 5.71519L8.74392 5.54548L8.57422 5.37578ZM5 1.80156L5.16971 1.63185L5 1.46215L4.83029 1.63185L5 1.80156ZM1.59549 5.20607L1.24392 4.85451L0.904513 5.19392L1.25608 5.54548L1.59549 5.20607ZM1.24392 5.19392L5.16971 1.26814L4.83029 0.928728L0.904513 4.85451L1.24392 5.19392ZM4.83029 1.26814L8.75608 5.19392L9.09549 4.85451L5.16971 0.928728L4.83029 1.26814ZM8.75608 4.85451L8.40451 5.20607L8.74392 5.54548L9.09549 5.19392L8.75608 4.85451ZM8.74392 5.20607L5.16971 1.63185L4.83029 1.97126L8.40451 5.54548L8.74392 5.20607ZM4.83029 1.63185L1.25608 5.20607L1.59549 5.54548L5.16971 1.97126L4.83029 1.63185Z" fill="white"/>
</svg>
