<svg width="69" height="69" viewBox="0 0 69 69" fill="none" xmlns="http://www.w3.org/2000/svg">
<path d="M12.075 6.90002C5.41638 6.90002 0 12.3164 0 18.975C0 25.6336 5.41638 31.05 12.075 31.05C18.7336 31.05 24.15 25.6336 24.15 18.975C24.15 12.3164 18.7336 6.90002 12.075 6.90002ZM12.075 8.62502C17.8014 8.62502 22.425 13.2487 22.425 18.975C22.425 24.7014 17.8014 29.325 12.075 29.325C6.34864 29.325 1.725 24.7014 1.725 18.975C1.725 13.2487 6.34864 8.62502 12.075 8.62502ZM22.4503 8.62502C22.9824 9.15805 23.4607 9.7411 23.9057 10.35H38.8125V18.1125V42.2625C38.5838 42.2625 38.3644 42.3534 38.2026 42.5151C38.0409 42.6769 37.95 42.8963 37.95 43.125C37.95 43.3538 38.0409 43.5732 38.2026 43.7349C38.3644 43.8967 38.5838 43.9875 38.8125 43.9875V53.475H22.3745C21.9429 49.6023 18.6476 46.575 14.6625 46.575C10.6774 46.575 7.38207 49.6023 6.95054 53.475H4.3125V43.9875C4.54125 43.9875 4.76063 43.8967 4.92238 43.7349C5.08413 43.5732 5.175 43.3538 5.175 43.125C5.175 42.8963 5.08413 42.6769 4.92238 42.5151C4.76063 42.3534 4.54125 42.2625 4.3125 42.2625H1.725V29.3503C1.08761 28.7146 0.512325 28.0167 0 27.2732V43.9875H2.5875V55.2H6.95054C7.38207 59.0728 10.6774 62.1 14.6625 62.1C18.6476 62.1 21.9429 59.0728 22.3745 55.2H39.675H43.1755C43.6071 59.0728 46.9024 62.1 50.8875 62.1C54.8726 62.1 58.1679 59.0728 58.5995 55.2H67.275C68.2178 55.2 69 54.4178 69 53.475V50.025C69 49.4165 68.6221 48.9681 68.1375 48.6605V36.6984L62.4571 21.9769C61.5595 19.651 59.3184 18.1125 56.8256 18.1125H40.5375V8.62502H22.4503ZM12.075 10.35C11.8463 10.35 11.6269 10.4409 11.4651 10.6026C11.3034 10.7644 11.2125 10.9838 11.2125 11.2125C11.2125 11.4413 11.3034 11.6607 11.4651 11.8224C11.6269 11.9842 11.8463 12.075 12.075 12.075C12.3037 12.075 12.5231 11.9842 12.6849 11.8224C12.8466 11.6607 12.9375 11.4413 12.9375 11.2125C12.9375 10.9838 12.8466 10.7644 12.6849 10.6026C12.5231 10.4409 12.3037 10.35 12.075 10.35ZM8.19375 11.3894C7.965 11.3894 7.74562 11.4803 7.58387 11.642C7.42212 11.8038 7.33125 12.0232 7.33125 12.2519C7.33125 12.4807 7.42212 12.7 7.58387 12.8618C7.74562 13.0235 7.965 13.1144 8.19375 13.1144C8.4225 13.1144 8.64188 13.0235 8.80363 12.8618C8.96538 12.7 9.05625 12.4807 9.05625 12.2519C9.05625 12.0232 8.96538 11.8038 8.80363 11.642C8.64188 11.4803 8.4225 11.3894 8.19375 11.3894ZM15.9563 11.3911C15.7275 11.3911 15.5081 11.482 15.3464 11.6437C15.1846 11.8055 15.0938 12.0248 15.0938 12.2536C15.0938 12.4823 15.1846 12.7017 15.3464 12.8635C15.5081 13.0252 15.7275 13.1161 15.9563 13.1161C16.185 13.1161 16.4044 13.0252 16.5661 12.8635C16.7279 12.7017 16.8188 12.4823 16.8188 12.2536C16.8188 12.0248 16.7279 11.8055 16.5661 11.6437C16.4044 11.482 16.185 11.3911 15.9563 11.3911ZM11.2125 13.8V19.3322L14.4081 22.5278L15.6278 21.3082L12.9375 18.6179V13.8H11.2125ZM18.7964 14.2296C18.5677 14.2296 18.3483 14.3205 18.1866 14.4822C18.0248 14.644 17.9339 14.8633 17.9339 15.0921C17.9339 15.3208 18.0248 15.5402 18.1866 15.702C18.3483 15.8637 18.5677 15.9546 18.7964 15.9546C19.0252 15.9546 19.2446 15.8637 19.4063 15.702C19.5681 15.5402 19.6589 15.3208 19.6589 15.0921C19.6589 14.8633 19.5681 14.644 19.4063 14.4822C19.2446 14.3205 19.0252 14.2296 18.7964 14.2296ZM5.35188 14.2313C5.12313 14.2313 4.90375 14.3221 4.742 14.4839C4.58025 14.6456 4.48938 14.865 4.48938 15.0938C4.48938 15.3225 4.58025 15.5419 4.742 15.7037C4.90375 15.8654 5.12313 15.9563 5.35188 15.9563C5.58063 15.9563 5.80001 15.8654 5.96176 15.7037C6.12351 15.5419 6.21438 15.3225 6.21438 15.0938C6.21438 14.865 6.12351 14.6456 5.96176 14.4839C5.80001 14.3221 5.58063 14.2313 5.35188 14.2313ZM4.3125 18.1125C4.08375 18.1125 3.86437 18.2034 3.70262 18.3651C3.54087 18.5269 3.45 18.7463 3.45 18.975C3.45 19.2038 3.54087 19.4232 3.70262 19.5849C3.86437 19.7467 4.08375 19.8375 4.3125 19.8375C4.54125 19.8375 4.76063 19.7467 4.92238 19.5849C5.08413 19.4232 5.175 19.2038 5.175 18.975C5.175 18.7463 5.08413 18.5269 4.92238 18.3651C4.76063 18.2034 4.54125 18.1125 4.3125 18.1125ZM19.8375 18.1125C19.6088 18.1125 19.3894 18.2034 19.2276 18.3651C19.0659 18.5269 18.975 18.7463 18.975 18.975C18.975 19.2038 19.0659 19.4232 19.2276 19.5849C19.3894 19.7467 19.6088 19.8375 19.8375 19.8375C20.0662 19.8375 20.2856 19.7467 20.4474 19.5849C20.6091 19.4232 20.7 19.2038 20.7 18.975C20.7 18.7463 20.6091 18.5269 20.4474 18.3651C20.2856 18.2034 20.0662 18.1125 19.8375 18.1125ZM40.5375 19.8375H52.6125V31.9125C52.6125 33.8077 54.1673 35.3625 56.0625 35.3625H57.2653C57.8432 35.3625 58.3805 35.6501 58.7005 36.1307L58.8892 36.4137C59.5288 37.3725 60.6068 37.95 61.7597 37.95H66.4125V39.675H64.6875C62.7923 39.675 61.2375 41.2298 61.2375 43.125V43.9875H61.4127C61.8063 45.4593 63.0974 46.575 64.6875 46.575H66.4125V48.3C66.1838 48.3 65.9644 48.3909 65.8026 48.5526C65.6409 48.7144 65.55 48.9338 65.55 49.1625C65.55 49.3913 65.6409 49.6107 65.8026 49.7724C65.9644 49.9342 66.1838 50.025 66.4125 50.025H67.275V53.475H58.5995C58.1679 49.6023 54.8726 46.575 50.8875 46.575C46.9024 46.575 43.6071 49.6023 43.1755 53.475H40.5375V43.125V19.8375ZM54.3375 19.8375H56.8256C58.6108 19.8375 60.2056 20.9311 60.8484 22.5969L66.1059 36.225H61.7597C61.1807 36.225 60.6457 35.9385 60.3245 35.4569L60.1341 35.1739C59.4949 34.2147 58.4172 33.6375 57.2653 33.6375H56.0625C55.0994 33.6375 54.3375 32.8756 54.3375 31.9125V19.8375ZM5.35188 21.9921C5.12313 21.9921 4.90375 22.083 4.742 22.2447C4.58025 22.4065 4.48938 22.6258 4.48938 22.8546C4.48938 23.0833 4.58025 23.3027 4.742 23.4645C4.90375 23.6262 5.12313 23.7171 5.35188 23.7171C5.58063 23.7171 5.80001 23.6262 5.96176 23.4645C6.12351 23.3027 6.21438 23.0833 6.21438 22.8546C6.21438 22.6258 6.12351 22.4065 5.96176 22.2447C5.80001 22.083 5.58063 21.9921 5.35188 21.9921ZM18.7964 21.9955C18.5677 21.9955 18.3483 22.0863 18.1866 22.2481C18.0248 22.4098 17.9339 22.6292 17.9339 22.858C17.9339 23.0867 18.0248 23.3061 18.1866 23.4678C18.3483 23.6296 18.5677 23.7205 18.7964 23.7205C19.0252 23.7205 19.2446 23.6296 19.4063 23.4678C19.5681 23.3061 19.6589 23.0867 19.6589 22.858C19.6589 22.6292 19.5681 22.4098 19.4063 22.2481C19.2446 22.0863 19.0252 21.9955 18.7964 21.9955ZM45.7125 22.425C44.2937 22.425 43.125 23.5937 43.125 25.0125V32.775C43.125 34.1938 44.2937 35.3625 45.7125 35.3625H47.4375C48.8563 35.3625 50.025 34.1938 50.025 32.775V25.0125C50.025 23.5937 48.8563 22.425 47.4375 22.425H45.7125ZM45.7125 24.15H47.4375C47.9248 24.15 48.3 24.5252 48.3 25.0125V32.775C48.3 33.2624 47.9248 33.6375 47.4375 33.6375H45.7125C45.2252 33.6375 44.85 33.2624 44.85 32.775V25.0125C44.85 24.5252 45.2252 24.15 45.7125 24.15ZM15.9546 24.834C15.7258 24.834 15.5064 24.9248 15.3447 25.0866C15.1829 25.2483 15.0921 25.4677 15.0921 25.6965C15.0921 25.9252 15.1829 26.1446 15.3447 26.3063C15.5064 26.4681 15.7258 26.559 15.9546 26.559C16.1833 26.559 16.4027 26.4681 16.5644 26.3063C16.7262 26.1446 16.8171 25.9252 16.8171 25.6965C16.8171 25.4677 16.7262 25.2483 16.5644 25.0866C16.4027 24.9248 16.1833 24.834 15.9546 24.834ZM8.19207 24.8356C7.96332 24.8356 7.74394 24.9265 7.58219 25.0883C7.42044 25.25 7.32957 25.4694 7.32957 25.6981C7.32957 25.9269 7.42044 26.1463 7.58219 26.308C7.74394 26.4698 7.96332 26.5606 8.19207 26.5606C8.30533 26.5606 8.41749 26.5383 8.52213 26.495C8.62677 26.4516 8.72185 26.3881 8.80194 26.308C8.88204 26.2279 8.94557 26.1329 8.98891 26.0282C9.03226 25.9236 9.05457 25.8114 9.05457 25.6981C9.05457 25.5849 9.03226 25.4727 8.98891 25.3681C8.94557 25.2634 8.88204 25.1684 8.80194 25.0883C8.72185 25.0082 8.62677 24.9446 8.52213 24.9013C8.41749 24.858 8.30533 24.8356 8.19207 24.8356ZM12.075 25.875C11.8463 25.875 11.6269 25.9659 11.4651 26.1276C11.3034 26.2894 11.2125 26.5088 11.2125 26.7375C11.2125 26.9663 11.3034 27.1857 11.4651 27.3474C11.6269 27.5092 11.8463 27.6 12.075 27.6C12.3037 27.6 12.5231 27.5092 12.6849 27.3474C12.8466 27.1857 12.9375 26.9663 12.9375 26.7375C12.9375 26.5088 12.8466 26.2894 12.6849 26.1276C12.5231 25.9659 12.3037 25.875 12.075 25.875ZM64.6875 41.4H66.4125V44.85H64.6875C63.7244 44.85 62.9625 44.0882 62.9625 43.125C62.9625 42.1619 63.7244 41.4 64.6875 41.4ZM7.7625 42.2625C7.53375 42.2625 7.31437 42.3534 7.15262 42.5151C6.99087 42.6769 6.9 42.8963 6.9 43.125C6.9 43.3538 6.99087 43.5732 7.15262 43.7349C7.31437 43.8967 7.53375 43.9875 7.7625 43.9875C7.99125 43.9875 8.21063 43.8967 8.37238 43.7349C8.53413 43.5732 8.625 43.3538 8.625 43.125C8.625 42.8963 8.53413 42.6769 8.37238 42.5151C8.21063 42.3534 7.99125 42.2625 7.7625 42.2625ZM11.2125 42.2625C10.9838 42.2625 10.7644 42.3534 10.6026 42.5151C10.4409 42.6769 10.35 42.8963 10.35 43.125C10.35 43.3538 10.4409 43.5732 10.6026 43.7349C10.7644 43.8967 10.9838 43.9875 11.2125 43.9875C11.4412 43.9875 11.6606 43.8967 11.8224 43.7349C11.9841 43.5732 12.075 43.3538 12.075 43.125C12.075 42.8963 11.9841 42.6769 11.8224 42.5151C11.6606 42.3534 11.4412 42.2625 11.2125 42.2625ZM14.6625 42.2625C14.4338 42.2625 14.2144 42.3534 14.0526 42.5151C13.8909 42.6769 13.8 42.8963 13.8 43.125C13.8 43.3538 13.8909 43.5732 14.0526 43.7349C14.2144 43.8967 14.4338 43.9875 14.6625 43.9875C14.8912 43.9875 15.1106 43.8967 15.2724 43.7349C15.4341 43.5732 15.525 43.3538 15.525 43.125C15.525 42.8963 15.4341 42.6769 15.2724 42.5151C15.1106 42.3534 14.8912 42.2625 14.6625 42.2625ZM18.1125 42.2625C17.8838 42.2625 17.6644 42.3534 17.5026 42.5151C17.3409 42.6769 17.25 42.8963 17.25 43.125C17.25 43.3538 17.3409 43.5732 17.5026 43.7349C17.6644 43.8967 17.8838 43.9875 18.1125 43.9875C18.3412 43.9875 18.5606 43.8967 18.7224 43.7349C18.8841 43.5732 18.975 43.3538 18.975 43.125C18.975 42.8963 18.8841 42.6769 18.7224 42.5151C18.5606 42.3534 18.3412 42.2625 18.1125 42.2625ZM21.5625 42.2625C21.3338 42.2625 21.1144 42.3534 20.9526 42.5151C20.7909 42.6769 20.7 42.8963 20.7 43.125C20.7 43.3538 20.7909 43.5732 20.9526 43.7349C21.1144 43.8967 21.3338 43.9875 21.5625 43.9875C21.7913 43.9875 22.0106 43.8967 22.1724 43.7349C22.3341 43.5732 22.425 43.3538 22.425 43.125C22.425 42.8963 22.3341 42.6769 22.1724 42.5151C22.0106 42.3534 21.7913 42.2625 21.5625 42.2625ZM25.0125 42.2625C24.7838 42.2625 24.5644 42.3534 24.4026 42.5151C24.2409 42.6769 24.15 42.8963 24.15 43.125C24.15 43.3538 24.2409 43.5732 24.4026 43.7349C24.5644 43.8967 24.7838 43.9875 25.0125 43.9875C25.2412 43.9875 25.4606 43.8967 25.6224 43.7349C25.7841 43.5732 25.875 43.3538 25.875 43.125C25.875 42.8963 25.7841 42.6769 25.6224 42.5151C25.4606 42.3534 25.2412 42.2625 25.0125 42.2625ZM28.4625 42.2625C28.2338 42.2625 28.0144 42.3534 27.8526 42.5151C27.6909 42.6769 27.6 42.8963 27.6 43.125C27.6 43.3538 27.6909 43.5732 27.8526 43.7349C28.0144 43.8967 28.2338 43.9875 28.4625 43.9875C28.6912 43.9875 28.9106 43.8967 29.0724 43.7349C29.2341 43.5732 29.325 43.3538 29.325 43.125C29.325 42.8963 29.2341 42.6769 29.0724 42.5151C28.9106 42.3534 28.6912 42.2625 28.4625 42.2625ZM31.9125 42.2625C31.6838 42.2625 31.4644 42.3534 31.3026 42.5151C31.1409 42.6769 31.05 42.8963 31.05 43.125C31.05 43.3538 31.1409 43.5732 31.3026 43.7349C31.4644 43.8967 31.6838 43.9875 31.9125 43.9875C32.1413 43.9875 32.3606 43.8967 32.5224 43.7349C32.6841 43.5732 32.775 43.3538 32.775 43.125C32.775 42.8963 32.6841 42.6769 32.5224 42.5151C32.3606 42.3534 32.1413 42.2625 31.9125 42.2625ZM35.3625 42.2625C35.1338 42.2625 34.9144 42.3534 34.7526 42.5151C34.5909 42.6769 34.5 42.8963 34.5 43.125C34.5 43.3538 34.5909 43.5732 34.7526 43.7349C34.9144 43.8967 35.1338 43.9875 35.3625 43.9875C35.5913 43.9875 35.8106 43.8967 35.9724 43.7349C36.1341 43.5732 36.225 43.3538 36.225 43.125C36.225 42.8963 36.1341 42.6769 35.9724 42.5151C35.8106 42.3534 35.5913 42.2625 35.3625 42.2625ZM14.6625 48.3C18.0071 48.3 20.7 50.9929 20.7 54.3375C20.7 57.6822 18.0071 60.375 14.6625 60.375C11.3179 60.375 8.625 57.6822 8.625 54.3375C8.625 50.9929 11.3179 48.3 14.6625 48.3ZM50.8875 48.3C54.2321 48.3 56.925 50.9929 56.925 54.3375C56.925 57.6822 54.2321 60.375 50.8875 60.375C47.5429 60.375 44.85 57.6822 44.85 54.3375C44.85 50.9929 47.5429 48.3 50.8875 48.3ZM59.5125 48.3C59.2838 48.3 59.0644 48.3909 58.9026 48.5526C58.7409 48.7144 58.65 48.9338 58.65 49.1625C58.65 49.3913 58.7409 49.6107 58.9026 49.7724C59.0644 49.9342 59.2838 50.025 59.5125 50.025C59.7412 50.025 59.9606 49.9342 60.1224 49.7724C60.2841 49.6107 60.375 49.3913 60.375 49.1625C60.375 48.9338 60.2841 48.7144 60.1224 48.5526C59.9606 48.3909 59.7412 48.3 59.5125 48.3ZM62.9625 48.3C62.7338 48.3 62.5144 48.3909 62.3526 48.5526C62.1909 48.7144 62.1 48.9338 62.1 49.1625C62.1 49.3913 62.1909 49.6107 62.3526 49.7724C62.5144 49.9342 62.7338 50.025 62.9625 50.025C63.1912 50.025 63.4106 49.9342 63.5724 49.7724C63.7341 49.6107 63.825 49.3913 63.825 49.1625C63.825 48.9338 63.7341 48.7144 63.5724 48.5526C63.4106 48.3909 63.1912 48.3 62.9625 48.3ZM14.6625 51.75C13.2437 51.75 12.075 52.9187 12.075 54.3375C12.075 55.7563 13.2437 56.925 14.6625 56.925C16.0813 56.925 17.25 55.7563 17.25 54.3375C17.25 52.9187 16.0813 51.75 14.6625 51.75ZM50.8875 51.75C49.4687 51.75 48.3 52.9187 48.3 54.3375C48.3 55.7563 49.4687 56.925 50.8875 56.925C52.3063 56.925 53.475 55.7563 53.475 54.3375C53.475 52.9187 52.3063 51.75 50.8875 51.75ZM14.6625 53.475C15.1491 53.475 15.525 53.851 15.525 54.3375C15.525 54.8241 15.1491 55.2 14.6625 55.2C14.1759 55.2 13.8 54.8241 13.8 54.3375C13.8 53.851 14.1759 53.475 14.6625 53.475ZM50.8875 53.475C51.3741 53.475 51.75 53.851 51.75 54.3375C51.75 54.8241 51.3741 55.2 50.8875 55.2C50.4009 55.2 50.025 54.8241 50.025 54.3375C50.025 53.851 50.4009 53.475 50.8875 53.475Z" fill="#ED1C24"/>
</svg>
