<svg width="186" height="18" viewBox="0 0 186 18" fill="none" xmlns="http://www.w3.org/2000/svg">
<path d="M4.4622 4.13865V6.93559H8.70347C10.4917 6.93559 11.8749 7.38646 12.853 8.28821C13.8465 9.17467 14.3432 10.3821 14.3432 11.9105C14.3432 13.5306 13.8159 14.7838 12.7613 15.6703C11.7067 16.5568 10.2395 17 8.35958 17H0.931631V0.951964H13.2428V4.13865H4.4622ZM8.33665 9.87009H4.4622V13.8133H8.35958C9.99495 13.8133 10.8126 13.1332 10.8126 11.7729C10.8126 10.5044 9.98731 9.87009 8.33665 9.87009ZM24.0388 9.4345L27.9133 0.951964H31.7419L25.5749 13.3548C24.8871 14.7303 24.1229 15.7238 23.2823 16.3352C22.457 16.9465 21.4711 17.2522 20.3249 17.2522C19.1174 17.2522 17.9635 16.9389 16.8631 16.3122L18.2386 13.7216C18.8194 14.0731 19.4537 14.2489 20.1415 14.2489C20.9362 14.2489 21.6087 13.821 22.1589 12.9651L15.7397 0.951964H19.6829L24.0388 9.4345ZM34.0889 17V0.951964H37.6195V7.96725L44.1304 0.951964H48.3946L41.8607 7.76092L48.6926 17H44.4514L39.4765 10.1681L37.6195 12.0939V17H34.0889ZM50.8355 17V0.951964H62.9403V4.09279H54.3431V7.34825H61.9086V10.4891H54.3431V13.8592H63.0549V17H50.8355ZM69.9308 17V4.20742H65.0476V0.951964H78.3446V4.20742H73.4614V17H69.9308Z" fill="#282A32"/>
<path d="M80.5555 17V13.3319H84.2695V17H80.5555ZM87.6197 17V0.951964H91.4253L95.6437 7.73799L99.862 0.951964H103.668V17H100.16V6.52293L95.6437 13.3777H95.552L91.0815 6.5917V17H87.6197ZM106.147 17L113.025 0.837335H116.281L123.158 17H119.467L118 13.4007H111.214L109.747 17H106.147ZM112.475 10.2828H116.739L114.607 5.0786L112.475 10.2828ZM125.635 17V0.951964H132.192C134.087 0.951964 135.585 1.46397 136.685 2.48799C137.786 3.51201 138.336 4.86463 138.336 6.54585C138.336 8.33406 137.725 9.72489 136.502 10.7183C135.279 11.6965 133.728 12.1856 131.848 12.1856H129.166V17H125.635ZM129.166 9.04476H131.963C132.834 9.04476 133.514 8.8155 134.003 8.35699C134.508 7.89847 134.76 7.3024 134.76 6.56878C134.76 5.7893 134.508 5.19323 134.003 4.78057C133.499 4.35262 132.796 4.13865 131.894 4.13865H129.166V9.04476ZM140.949 17V0.951964H144.48V7.96725L150.99 0.951964H155.255L148.721 7.76092L155.553 17H151.311L146.337 10.1681L144.48 12.0939V17H140.949ZM157.696 17V0.951964H169.8V4.09279H161.203V7.34825H168.769V10.4891H161.203V13.8592H169.915V17H157.696ZM176.791 17V4.20742H171.908V0.951964H185.205V4.20742H180.321V17H176.791Z" fill="#ED1C24"/>
</svg>
