<svg width="60" height="79" viewBox="0 0 60 79" fill="none" xmlns="http://www.w3.org/2000/svg">
<path d="M30 0C15.3333 0 0.0250224 11.6467 2.24625e-05 28.3333C-0.0299775 48.3016 30 78.3332 30 78.3332C30 78.3332 60.0316 48.3433 60 28.3333C59.9733 11.6717 44.6666 0 30 0Z" fill="#ED1C24"/>
<path d="M30.0887 25.7672C31.2759 23.7853 34.897 17.5484 34.897 15.2456C34.897 12.5949 32.7394 10.4373 30.0887 10.4373C27.4379 10.4373 25.2803 12.5949 25.2803 15.2456C25.2803 17.5484 28.9014 23.7853 30.0887 25.7672Z" fill="white"/>
<path d="M30.0886 10.8742C27.6783 10.8742 25.7174 12.8352 25.7174 15.2455C25.7174 16.9643 28.1128 21.5812 30.0886 24.9217C32.0644 21.5812 34.4599 16.9643 34.4599 15.2455C34.4599 12.8352 32.4989 10.8742 30.0886 10.8742ZM30.0886 10C32.9859 10 35.3341 12.3482 35.3341 15.2455C35.3341 18.1427 30.0886 26.6107 30.0886 26.6107C30.0886 26.6107 24.8432 18.1427 24.8432 15.2455C24.8432 12.3482 27.1914 10 30.0886 10Z" fill="white"/>
<path d="M29.2144 18.7425C29.2144 19.2251 30.0887 22.2395 30.0887 22.2395C30.0887 22.2395 30.9629 19.2251 30.9629 18.7425C30.9629 18.2599 30.5712 17.8683 30.0887 17.8683C29.6061 17.8683 29.2144 18.2599 29.2144 18.7425Z" fill="white"/>
<path d="M30.0887 42.7842C32.7394 42.7842 34.897 40.6265 34.897 37.9758C34.897 35.673 31.2759 29.4361 30.0887 27.4542C28.9014 29.437 25.2803 35.673 25.2803 37.9758C25.2803 40.6265 27.4379 42.7842 30.0887 42.7842Z" fill="white"/>
<path d="M30.0886 28.2998C28.1128 31.6403 25.7174 36.2572 25.7174 37.9759C25.7174 40.3862 27.6783 42.3472 30.0886 42.3472C32.4989 42.3472 34.4599 40.3862 34.4599 37.9759C34.4599 36.2572 32.0644 31.6403 30.0886 28.2998ZM30.0886 26.6107C30.0886 26.6107 35.3341 35.0787 35.3341 37.9759C35.3341 40.8732 32.9859 43.2214 30.0886 43.2214C27.1914 43.2214 24.8432 40.8732 24.8432 37.9759C24.8432 35.0787 30.0886 26.6107 30.0886 26.6107Z" fill="white"/>
<path d="M30.9629 34.4788C30.9629 33.9962 30.0887 30.9818 30.0887 30.9818C30.0887 30.9818 29.2144 33.9962 29.2144 34.4788C29.2144 34.9614 29.6061 35.3531 30.0887 35.3531C30.5712 35.3531 30.9629 34.9614 30.9629 34.4788Z" fill="white"/>
<path d="M32.2891 26.2006C37.4524 26.2006 41.1147 25.7967 42.3351 25.0921C44.6318 23.7658 45.4203 20.8188 44.0958 18.523C43.2399 17.0394 41.6418 16.1179 39.9265 16.1179C39.0873 16.1179 38.2576 16.3409 37.5267 16.7622C35.71 17.8122 32.3424 23.4319 30.8169 26.1875C31.1919 26.1954 31.6964 26.2006 32.2891 26.2006C32.2882 26.2006 32.2882 26.2006 32.2891 26.2006Z" fill="white"/>
<path d="M39.9266 16.556C39.1642 16.556 38.4106 16.7588 37.7462 17.1426C36.2591 18.0011 33.4597 22.3803 31.5548 25.761C31.7803 25.7627 32.0277 25.7636 32.2909 25.7636C37.3047 25.7636 40.9774 25.3711 42.1166 24.7136C43.1281 24.1296 43.8511 23.1872 44.1535 22.0594C44.456 20.9316 44.3004 19.754 43.7164 18.7425C42.9383 17.3935 41.4853 16.556 39.9266 16.556ZM39.9266 15.6818C41.7397 15.6818 43.5022 16.6225 44.4744 18.3054C45.923 20.8145 45.0636 24.0221 42.5545 25.4707C40.7956 26.4866 35.3743 26.6378 32.2917 26.6378C30.9769 26.6378 30.0886 26.6107 30.0886 26.6107C30.0886 26.6107 34.8 17.8342 37.3082 16.3855C38.1343 15.9082 39.0366 15.6818 39.9266 15.6818Z" fill="white"/>
<path d="M36.4654 21.9197C36.0475 22.161 33.8742 24.4253 33.8742 24.4253C33.8742 24.4253 36.9218 23.6751 37.3397 23.4339C37.7576 23.1926 37.901 22.6575 37.6597 22.2396C37.4184 21.8217 36.8833 21.6784 36.4654 21.9197Z" fill="white"/>
<path d="M20.2507 37.1027C21.09 37.1027 21.9197 36.8798 22.6505 36.4584C24.4672 35.4084 27.8348 29.7887 29.3604 27.0331C28.9845 27.0261 28.4774 27.0209 27.8829 27.0209C22.7222 27.0209 19.0626 27.4248 17.8431 28.1294C15.5464 29.4557 14.7578 32.4027 16.0823 34.6985C16.9382 36.1812 18.5355 37.1027 20.2507 37.1027Z" fill="white"/>
<path d="M27.8864 27.457C22.8735 27.457 19.1999 27.8495 18.0607 28.507C17.0492 29.091 16.3262 30.0334 16.0237 31.1612C15.7212 32.289 15.8769 33.4666 16.4609 34.4781C17.2398 35.8271 18.6919 36.6646 20.2516 36.6646C21.0139 36.6646 21.7676 36.4618 22.432 36.078C23.9191 35.2195 26.7184 30.8404 28.6234 27.4596C28.397 27.4588 28.1496 27.457 27.8864 27.457ZM27.8864 26.5828C29.1995 26.5828 30.0886 26.6107 30.0886 26.6107C30.0886 26.6107 25.3773 35.3873 22.8691 36.8359C22.0429 37.3124 21.1407 37.5397 20.2516 37.5397C18.4384 37.5397 16.6759 36.599 15.7038 34.9161C14.2551 32.407 15.1145 29.1994 17.6236 27.7508C19.3826 26.7349 24.8038 26.5828 27.8864 26.5828Z" fill="white"/>
<path d="M23.7119 31.3017C24.1298 31.0604 26.3032 28.7961 26.3032 28.7961C26.3032 28.7961 23.2555 29.5462 22.8377 29.7875C22.4198 30.0288 22.2764 30.5639 22.5177 30.9818C22.759 31.3997 23.294 31.543 23.7119 31.3017Z" fill="white"/>
<path d="M39.9266 37.1025C41.6418 37.1025 43.2391 36.181 44.0958 34.6974C45.4212 32.4016 44.6318 29.4554 42.336 28.1283C41.1155 27.4237 37.4559 27.0198 32.2952 27.0198C31.7016 27.0198 31.1954 27.025 30.8195 27.0311C31.9429 29.0507 35.5343 35.3059 37.5285 36.4573C38.2585 36.8795 39.0882 37.1025 39.9266 37.1025Z" fill="white"/>
<path d="M32.2909 27.457C32.0278 27.457 31.7812 27.4579 31.5548 27.4596C33.4257 30.7704 36.2722 35.2282 37.7445 36.078C38.4089 36.4618 39.1634 36.6646 39.9248 36.6646C41.4845 36.6646 42.9366 35.8271 43.7156 34.4781C44.9203 32.3904 44.2025 29.7117 42.1157 28.507C40.9774 27.8504 37.3047 27.457 32.2909 27.457ZM32.2909 26.5828C35.3735 26.5828 40.7947 26.734 42.5537 27.7499C45.0628 29.1985 45.9222 32.4061 44.4736 34.9152C43.5023 36.5982 41.7389 37.5388 39.9257 37.5388C39.0357 37.5388 38.1344 37.3124 37.3082 36.8351C34.8 35.3873 30.0887 26.6107 30.0887 26.6107C30.0887 26.6107 30.9778 26.5828 32.2909 26.5828Z" fill="white"/>
<path d="M37.3397 29.7875C36.9218 29.5462 33.8742 28.7961 33.8742 28.7961C33.8742 28.7961 36.0475 31.0604 36.4654 31.3017C36.8833 31.543 37.4184 31.3997 37.6597 30.9818C37.901 30.5639 37.7576 30.0288 37.3397 29.7875Z" fill="white"/>
<path d="M27.8829 26.2007C28.4765 26.2007 28.9827 26.1955 29.3586 26.1894C28.2352 24.1698 24.6438 17.9146 22.6497 16.7632C21.9188 16.3418 21.0891 16.1189 20.2507 16.1189C18.5354 16.1189 16.9382 17.0404 16.0814 18.524C14.7561 20.8197 15.5455 23.7659 17.8413 25.0931C19.0617 25.7968 22.7213 26.2007 27.8829 26.2007Z" fill="white"/>
<path d="M20.2507 16.5559C18.691 16.5559 17.2389 17.3934 16.46 18.7424C15.2553 20.8301 15.973 23.5088 18.0598 24.7135C19.199 25.3709 22.8717 25.7635 27.8855 25.7635C28.1487 25.7635 28.3952 25.7626 28.6216 25.7608C26.7507 22.4501 23.9042 17.9923 22.432 17.1425C21.7675 16.7587 21.0131 16.5559 20.2507 16.5559ZM20.2507 15.6816C21.1407 15.6816 22.042 15.9081 22.8682 16.3854C25.3773 17.834 30.0886 26.6106 30.0886 26.6106C30.0886 26.6106 29.1995 26.6386 27.8864 26.6386C24.8038 26.6386 19.3826 26.4873 17.6236 25.4715C15.1145 24.0228 14.2551 20.8152 15.7037 18.3061C16.675 16.6223 18.4384 15.6816 20.2507 15.6816Z" fill="white"/>
<path d="M22.8377 23.4339C23.2555 23.6751 26.3032 24.4253 26.3032 24.4253C26.3032 24.4253 24.1298 22.161 23.7119 21.9197C23.294 21.6784 22.759 21.8217 22.5177 22.2396C22.2764 22.6575 22.4198 23.1926 22.8377 23.4339Z" fill="white"/>
<path d="M30.0886 21.3652C31.4798 21.3652 32.814 21.9179 33.7977 22.9016C34.7815 23.8853 35.3341 25.2195 35.3341 26.6107C35.3341 28.0019 34.7815 29.3361 33.7977 30.3198C32.814 31.3036 31.4798 31.8562 30.0886 31.8562C28.6974 31.8562 27.3632 31.3036 26.3795 30.3198C25.3958 29.3361 24.8431 28.0019 24.8431 26.6107C24.8431 25.2195 25.3958 23.8853 26.3795 22.9016C27.3632 21.9179 28.6974 21.3652 30.0886 21.3652Z" fill="white"/>
</svg>
