<svg width="43" height="24" viewBox="0 0 43 24" fill="none" xmlns="http://www.w3.org/2000/svg">
<rect x="4.41818" y="6.68094" width="1.96364" height="10.8" rx="0.981818" fill="#ED1C24"/>
<rect x="10.8" y="11.0992" width="1.96364" height="10.8" rx="0.981818" transform="rotate(90 10.8 11.0992)" fill="#ED1C24"/>
<path d="M17.8 1.28094H19.8594C20.7111 1.28094 21.442 1.8844 21.5986 2.71692L23.705 13.9194C23.8615 14.7519 24.5924 15.3554 25.4442 15.3554H36.8129C37.575 15.3554 38.2515 14.8701 38.4919 14.151L41.2311 5.95667C41.3852 5.49565 41.1342 4.99769 40.6706 4.84446C40.5806 4.81472 40.4864 4.79956 40.3915 4.79956H26.6214" stroke="#ED1C24" stroke-width="1.76933" stroke-linecap="round"/>
<path d="M24.8572 22.3926C25.8316 22.3926 26.6215 21.6049 26.6215 20.6333C26.6215 19.6617 25.8316 18.874 24.8572 18.874C23.8828 18.874 23.0929 19.6617 23.0929 20.6333C23.0929 21.6049 23.8828 22.3926 24.8572 22.3926Z" stroke="#ED1C24" stroke-width="1.76933"/>
<path d="M36.325 22.3926C37.2994 22.3926 38.0893 21.6049 38.0893 20.6333C38.0893 19.6617 37.2994 18.874 36.325 18.874C35.3506 18.874 34.5607 19.6617 34.5607 20.6333C34.5607 21.6049 35.3506 22.3926 36.325 22.3926Z" stroke="#ED1C24" stroke-width="1.76933"/>
</svg>
