<svg width="25" height="23" viewBox="0 0 25 23" fill="none" xmlns="http://www.w3.org/2000/svg">
<path d="M1 1H2.98347C3.80384 1 4.50777 1.58121 4.65854 2.38304L6.6873 13.1725C6.83807 13.9744 7.542 14.5556 8.36237 14.5556H19.3119C20.046 14.5556 20.6975 14.0882 20.9291 13.3956L23.5672 5.50334C23.7157 5.05932 23.474 4.57973 23.0274 4.43214C22.9408 4.40349 22.85 4.38889 22.7587 4.38889H9.49621" stroke="#282A32" stroke-width="1.5" stroke-linecap="round"/>
<path d="M7.79703 21.3334C8.7355 21.3334 9.49628 20.5747 9.49628 19.6389C9.49628 18.7031 8.7355 17.9445 7.79703 17.9445C6.85856 17.9445 6.09778 18.7031 6.09778 19.6389C6.09778 20.5747 6.85856 21.3334 7.79703 21.3334Z" stroke="#282A32" stroke-width="1.5"/>
<path d="M18.8421 21.3334C19.7805 21.3334 20.5413 20.5747 20.5413 19.6389C20.5413 18.7031 19.7805 17.9445 18.8421 17.9445C17.9036 17.9445 17.1428 18.7031 17.1428 19.6389C17.1428 20.5747 17.9036 21.3334 18.8421 21.3334Z" stroke="#282A32" stroke-width="1.5"/>
</svg>
