<svg width="58" height="57" viewBox="0 0 58 57" fill="none" xmlns="http://www.w3.org/2000/svg">
<path d="M29 0C13.2702 0 0.5 12.7702 0.5 28.5C0.5 44.2298 13.2702 57 29 57C44.7298 57 57.5 44.2298 57.5 28.5C57.5 25.5932 57.0649 22.786 56.2551 20.142C56.2235 20.0317 56.1702 19.9288 56.0984 19.8393C56.0266 19.7498 55.9376 19.6756 55.8368 19.6208C55.7359 19.5661 55.6252 19.532 55.511 19.5206C55.3968 19.5092 55.2815 19.5206 55.1718 19.5542C55.0621 19.5878 54.9602 19.643 54.872 19.7164C54.7839 19.7898 54.7112 19.8801 54.6584 19.9819C54.6055 20.0838 54.5734 20.1951 54.564 20.3095C54.5547 20.4238 54.5682 20.5389 54.6038 20.648C55.3641 23.1305 55.7727 25.7656 55.7727 28.5C55.7727 43.2963 43.7963 55.2727 29 55.2727C14.2037 55.2727 2.22727 43.2963 2.22727 28.5C2.22727 13.7037 14.2037 1.72727 29 1.72727C35.9587 1.72727 42.2816 4.3833 47.0419 8.73082L44.5455 11.2273L52.3182 12.9545L50.5909 5.18182L48.2648 7.5079C43.1922 2.85022 36.4257 0 29 0ZM29 3.45455C28.5419 3.45455 28.1026 3.63653 27.7786 3.96045C27.4547 4.28438 27.2727 4.72372 27.2727 5.18182C27.2727 5.63992 27.4547 6.07926 27.7786 6.40318C28.1026 6.72711 28.5419 6.90909 29 6.90909C29.4581 6.90909 29.8974 6.72711 30.2214 6.40318C30.5453 6.07926 30.7273 5.63992 30.7273 5.18182C30.7273 4.72372 30.5453 4.28438 30.2214 3.96045C29.8974 3.63653 29.4581 3.45455 29 3.45455ZM22.9984 5.11435C22.912 5.11101 22.8256 5.12068 22.742 5.14302C22.5208 5.20232 22.3322 5.34705 22.2177 5.54539C22.1032 5.74372 22.0721 5.97942 22.1314 6.20064C22.1907 6.42185 22.3354 6.61045 22.5338 6.72495C22.7321 6.83946 22.9678 6.87051 23.189 6.81126C23.4102 6.75196 23.5988 6.60723 23.7133 6.40889C23.8278 6.21056 23.8589 5.97486 23.7996 5.75364C23.7518 5.57549 23.6483 5.41731 23.5041 5.30228C23.3599 5.18724 23.1827 5.12138 22.9984 5.11435ZM35.0286 5.11435C34.8399 5.11598 34.6569 5.17937 34.5077 5.29481C34.3584 5.41026 34.2511 5.57142 34.2021 5.75364C34.1428 5.97486 34.1739 6.21056 34.2884 6.40889C34.4029 6.60723 34.5915 6.75196 34.8127 6.81126C35.0339 6.87051 35.2696 6.83946 35.4679 6.72495C35.6663 6.61045 35.811 6.42185 35.8703 6.20064C35.9295 5.97942 35.8985 5.74372 35.784 5.54539C35.6695 5.34705 35.4809 5.20232 35.2597 5.14302C35.1843 5.12308 35.1066 5.11343 35.0286 5.11435ZM17.3207 7.44212C17.1759 7.44579 17.0344 7.48581 16.9091 7.55851C16.711 7.67314 16.5666 7.8617 16.5074 8.08277C16.4483 8.30385 16.4793 8.53935 16.5937 8.73757C16.708 8.93592 16.8965 9.08074 17.1175 9.14021C17.3386 9.19967 17.5743 9.16891 17.7727 9.05469C17.871 8.99792 17.9572 8.92234 18.0262 8.83226C18.0953 8.74218 18.1459 8.63936 18.1752 8.5297C18.2045 8.42004 18.2119 8.30567 18.197 8.19315C18.182 8.08063 18.1451 7.97216 18.0882 7.87393C18.0107 7.73973 17.8986 7.62883 17.7636 7.55285C17.6286 7.47688 17.4756 7.43863 17.3207 7.44212ZM40.6186 7.4438C40.4742 7.45062 40.3338 7.49358 40.2104 7.56873C40.0869 7.64388 39.9842 7.74882 39.9118 7.87393C39.8549 7.97216 39.818 8.08063 39.803 8.19315C39.7881 8.30567 39.7955 8.42004 39.8248 8.5297C39.8541 8.63936 39.9047 8.74218 39.9738 8.83226C40.0428 8.92234 40.129 8.99792 40.2273 9.05469C40.4257 9.16891 40.6614 9.19967 40.8825 9.14021C41.1035 9.08074 41.292 8.93592 41.4063 8.73757C41.5207 8.53935 41.5517 8.30385 41.4926 8.08277C41.4334 7.8617 41.289 7.67314 41.0909 7.55851C40.9477 7.47585 40.7838 7.43604 40.6186 7.4438ZM29 8.63636C28.771 8.63636 28.5513 8.72735 28.3893 8.88932C28.2274 9.05128 28.1364 9.27095 28.1364 9.5C28.1364 9.72905 28.2274 9.94872 28.3893 10.1107C28.5513 10.2726 28.771 10.3636 29 10.3636C29.2291 10.3636 29.4487 10.2726 29.6107 10.1107C29.7726 9.94872 29.8636 9.72905 29.8636 9.5C29.8636 9.27095 29.7726 9.05128 29.6107 8.88932C29.4487 8.72735 29.2291 8.63636 29 8.63636ZM12.5251 11.148C12.4095 11.1462 12.2946 11.1677 12.1874 11.2112C12.0802 11.2546 11.9828 11.3192 11.901 11.401C11.7391 11.563 11.6481 11.7826 11.6481 12.0116C11.6481 12.2406 11.7391 12.4603 11.901 12.6222C12.063 12.7842 12.2826 12.8751 12.5116 12.8751C12.7406 12.8751 12.9603 12.7842 13.1222 12.6222C13.2842 12.4603 13.3751 12.2406 13.3751 12.0116C13.3751 11.7826 13.2842 11.563 13.1222 11.401C12.9636 11.2423 12.7495 11.1516 12.5251 11.148ZM35.2108 12.3591L29.5617 25.1028C29.3778 25.0721 29.1922 25.0455 29 25.0455C27.1023 25.0455 25.5455 26.6023 25.5455 28.5C25.5455 30.3977 27.1023 31.9545 29 31.9545C29.6369 31.9545 30.2283 31.7685 30.7425 31.4637L38.0125 38.7338L39.2338 37.5125L31.9637 30.2425C32.2685 29.7283 32.4545 29.1369 32.4545 28.5C32.4545 27.4114 31.9322 26.446 31.1372 25.8113L36.7896 13.0591L35.2108 12.3591ZM8.76527 15.9773C8.62088 15.9841 8.48051 16.027 8.35703 16.1022C8.23355 16.1773 8.1309 16.2823 8.05851 16.4074C8.00161 16.5056 7.96464 16.6141 7.9497 16.7266C7.93477 16.8391 7.94216 16.9535 7.97145 17.0632C8.00075 17.1728 8.05138 17.2756 8.12044 17.3657C8.1895 17.4558 8.27564 17.5314 8.37393 17.5882C8.47226 17.645 8.58082 17.6819 8.69341 17.6967C8.806 17.7115 8.92041 17.7039 9.03008 17.6745C9.13976 17.645 9.24255 17.5942 9.33256 17.525C9.42258 17.4558 9.49806 17.3695 9.55469 17.271C9.66891 17.0726 9.69967 16.837 9.64021 16.6159C9.58074 16.3948 9.43592 16.2063 9.23757 16.092C9.09436 16.0093 8.93044 15.9695 8.76527 15.9773ZM51.5321 21.601C51.5119 21.6009 51.4916 21.6014 51.4714 21.6027C51.4138 21.6066 51.3567 21.6162 51.301 21.6314C51.0798 21.6907 50.8912 21.8354 50.7767 22.0338C50.6622 22.2321 50.6312 22.4678 50.6904 22.689C50.7497 22.9102 50.8945 23.0988 51.0928 23.2133C51.2911 23.3278 51.5268 23.3589 51.748 23.2996C51.9693 23.2403 52.1579 23.0956 52.2724 22.8973C52.3869 22.6989 52.4179 22.4632 52.3587 22.242C52.31 22.0595 52.2028 21.8979 52.0535 21.7822C51.9042 21.6664 51.7211 21.6028 51.5321 21.601ZM6.46955 21.6027C6.28064 21.6045 6.0975 21.6681 5.94822 21.7839C5.79893 21.8996 5.69172 22.0612 5.64302 22.2437C5.58377 22.4649 5.61482 22.7006 5.72933 22.8989C5.84383 23.0973 6.03243 23.242 6.25364 23.3013C6.36329 23.3309 6.4777 23.3386 6.59032 23.3239C6.70294 23.3092 6.81155 23.2725 6.90995 23.2157C7.00835 23.159 7.09459 23.0834 7.16374 22.9934C7.23289 22.9033 7.28359 22.8004 7.31294 22.6907C7.3425 22.5809 7.35011 22.4664 7.33531 22.3537C7.32052 22.241 7.28362 22.1323 7.22673 22.0339C7.16985 21.9355 7.09409 21.8493 7.00381 21.7802C6.91353 21.7111 6.81051 21.6606 6.70064 21.6314C6.62526 21.6114 6.54752 21.6018 6.46955 21.6027ZM5.68182 26.7727C5.22372 26.7727 4.78438 26.9547 4.46045 27.2786C4.13653 27.6026 3.95455 28.0419 3.95455 28.5C3.95455 28.9581 4.13653 29.3974 4.46045 29.7214C4.78438 30.0453 5.22372 30.2273 5.68182 30.2273C6.13992 30.2273 6.57926 30.0453 6.90318 29.7214C7.22711 29.3974 7.40909 28.9581 7.40909 28.5C7.40909 28.0419 7.22711 27.6026 6.90318 27.2786C6.57926 26.9547 6.13992 26.7727 5.68182 26.7727ZM29 26.7727C29.9642 26.7727 30.7273 27.5358 30.7273 28.5C30.7273 29.4642 29.9642 30.2273 29 30.2273C28.0358 30.2273 27.2727 29.4642 27.2727 28.5C27.2727 27.5358 28.0358 26.7727 29 26.7727ZM52.3182 26.7727C51.8601 26.7727 51.4207 26.9547 51.0968 27.2786C50.7729 27.6026 50.5909 28.0419 50.5909 28.5C50.5909 28.9581 50.7729 29.3974 51.0968 29.7214C51.4207 30.0453 51.8601 30.2273 52.3182 30.2273C52.7763 30.2273 53.2156 30.0453 53.5396 29.7214C53.8635 29.3974 54.0455 28.9581 54.0455 28.5C54.0455 28.0419 53.8635 27.6026 53.5396 27.2786C53.2156 26.9547 52.7763 26.7727 52.3182 26.7727ZM10 27.6364C9.77095 27.6364 9.55128 27.7274 9.38932 27.8893C9.22735 28.0513 9.13636 28.271 9.13636 28.5C9.13636 28.7291 9.22735 28.9487 9.38932 29.1107C9.55128 29.2726 9.77095 29.3636 10 29.3636C10.2291 29.3636 10.4487 29.2726 10.6107 29.1107C10.7726 28.9487 10.8636 28.7291 10.8636 28.5C10.8636 28.271 10.7726 28.0513 10.6107 27.8893C10.4487 27.7274 10.2291 27.6364 10 27.6364ZM48 27.6364C47.771 27.6364 47.5513 27.7274 47.3893 27.8893C47.2274 28.0513 47.1364 28.271 47.1364 28.5C47.1364 28.7291 47.2274 28.9487 47.3893 29.1107C47.5513 29.2726 47.771 29.3636 48 29.3636C48.229 29.3636 48.4487 29.2726 48.6107 29.1107C48.7726 28.9487 48.8636 28.7291 48.8636 28.5C48.8636 28.271 48.7726 28.0513 48.6107 27.8893C48.4487 27.7274 48.229 27.6364 48 27.6364ZM6.48642 33.6717C6.46616 33.6715 6.44591 33.6721 6.42569 33.6734C6.36809 33.6772 6.31101 33.6868 6.25533 33.7021C6.03412 33.7614 5.84552 33.9061 5.73101 34.1044C5.6165 34.3028 5.58546 34.5385 5.64471 34.7597C5.70401 34.9809 5.84874 35.1695 6.04707 35.284C6.24541 35.3985 6.48111 35.4295 6.70233 35.3703C6.92353 35.311 7.11213 35.1663 7.22664 34.9679C7.34115 34.7696 7.37219 34.5339 7.31294 34.3127C7.26425 34.1301 7.15704 33.9686 7.00775 33.8528C6.85846 33.7371 6.67533 33.6734 6.48642 33.6717ZM51.517 33.6734C51.3283 33.675 51.1453 33.7384 50.996 33.8539C50.8468 33.9693 50.7394 34.1305 50.6904 34.3127C50.6312 34.5339 50.6622 34.7696 50.7767 34.9679C50.8912 35.1663 51.0798 35.311 51.301 35.3703C51.5223 35.4295 51.758 35.3985 51.9563 35.284C52.1546 35.1695 52.2994 34.9809 52.3587 34.7597C52.4179 34.5385 52.3869 34.3028 52.2724 34.1044C52.1579 33.9061 51.9693 33.7614 51.748 33.7021C51.6727 33.6821 51.5949 33.6725 51.517 33.6734ZM8.78551 39.2955C8.64088 39.2986 8.49935 39.3381 8.37393 39.4102C8.27564 39.4669 8.1895 39.5425 8.12044 39.6326C8.05137 39.7227 8.00075 39.8255 7.97145 39.9351C7.94216 40.0448 7.93477 40.1592 7.9497 40.2717C7.96464 40.3842 8.00161 40.4927 8.05851 40.5909C8.17314 40.789 8.3617 40.9334 8.58277 40.9926C8.80385 41.0517 9.03935 41.0207 9.23757 40.9063C9.43592 40.792 9.58074 40.6035 9.64021 40.3825C9.69967 40.1614 9.66891 39.9257 9.55469 39.7273C9.47712 39.5928 9.36475 39.4817 9.22939 39.4058C9.09403 39.3298 8.94069 39.2917 8.78551 39.2955ZM49.1521 39.2955C49.0075 39.3025 48.8671 39.3457 48.7436 39.4211C48.6201 39.4966 48.5175 39.6018 48.4453 39.7273C48.3311 39.9257 48.3003 40.1614 48.3598 40.3825C48.4193 40.6035 48.5641 40.792 48.7624 40.9063C48.9606 41.0207 49.1962 41.0517 49.4172 40.9926C49.6383 40.9334 49.8269 40.789 49.9415 40.5909C49.9984 40.4927 50.0354 40.3842 50.0503 40.2717C50.0652 40.1592 50.0578 40.0448 50.0285 39.9351C49.9993 39.8255 49.9486 39.7227 49.8796 39.6326C49.8105 39.5425 49.7244 39.4669 49.6261 39.4102C49.4824 39.3272 49.3178 39.2874 49.1521 39.2955ZM12.5251 44.1247C12.4095 44.123 12.2946 44.1444 12.1874 44.1879C12.0802 44.2314 11.9828 44.2959 11.901 44.3778C11.7391 44.5397 11.6481 44.7594 11.6481 44.9884C11.6481 45.2174 11.7391 45.437 11.901 45.599C12.063 45.7609 12.2826 45.8519 12.5116 45.8519C12.7406 45.8519 12.9603 45.7609 13.1222 45.599C13.2842 45.437 13.3751 45.2174 13.3751 44.9884C13.3751 44.7594 13.2842 44.5397 13.1222 44.3778C12.9636 44.219 12.7495 44.1283 12.5251 44.1247ZM45.5002 44.1247C45.3848 44.1232 45.2703 44.1448 45.1633 44.1882C45.0564 44.2317 44.9593 44.2961 44.8778 44.3778C44.7158 44.5397 44.6249 44.7594 44.6249 44.9884C44.6249 45.2174 44.7158 45.437 44.8778 45.599C45.0397 45.7609 45.2594 45.8519 45.4884 45.8519C45.7174 45.8519 45.937 45.7609 46.099 45.599C46.2609 45.437 46.3519 45.2174 46.3519 44.9884C46.3519 44.7594 46.2609 44.5397 46.099 44.3778C45.94 44.2186 45.7251 44.1279 45.5002 44.1247ZM29 46.6364C28.771 46.6364 28.5513 46.7274 28.3893 46.8893C28.2274 47.0513 28.1364 47.271 28.1364 47.5C28.1364 47.729 28.2274 47.9487 28.3893 48.1107C28.5513 48.2726 28.771 48.3636 29 48.3636C29.2291 48.3636 29.4487 48.2726 29.6107 48.1107C29.7726 47.9487 29.8636 47.729 29.8636 47.5C29.8636 47.271 29.7726 47.0513 29.6107 46.8893C29.4487 46.7274 29.2291 46.6364 29 46.6364ZM17.2987 47.8306C17.1543 47.8374 17.014 47.8804 16.8905 47.9555C16.767 48.0307 16.6644 48.1356 16.592 48.2607C16.5351 48.359 16.4981 48.4674 16.4832 48.58C16.4682 48.6925 16.4756 48.8068 16.5049 48.9165C16.5342 49.0262 16.5848 49.129 16.6539 49.2191C16.723 49.3091 16.8091 49.3847 16.9074 49.4415C17.0057 49.4983 17.1143 49.5352 17.2269 49.55C17.3395 49.5648 17.4539 49.5573 17.5636 49.5278C17.6732 49.4984 17.776 49.4476 17.866 49.3783C17.9561 49.3091 18.0315 49.2228 18.0882 49.1244C18.2024 48.926 18.2331 48.6903 18.1737 48.4692C18.1142 48.2481 17.9694 48.0597 17.771 47.9453C17.6278 47.8627 17.4639 47.8228 17.2987 47.8306ZM40.6389 47.8306C40.4941 47.8343 40.3525 47.8743 40.2273 47.947C40.0289 48.0614 39.8841 48.2498 39.8246 48.4709C39.7652 48.692 39.7959 48.9276 39.9102 49.1261C39.9669 49.2244 40.0425 49.3105 40.1326 49.3796C40.2227 49.4486 40.3255 49.4993 40.4351 49.5285C40.5448 49.5578 40.6592 49.5652 40.7717 49.5503C40.8842 49.5354 40.9927 49.4984 41.0909 49.4415C41.289 49.3269 41.4334 49.1383 41.4926 48.9172C41.5517 48.6962 41.5207 48.4606 41.4063 48.2624C41.3289 48.1282 41.2168 48.0173 41.0818 47.9413C40.9467 47.8654 40.7938 47.8271 40.6389 47.8306ZM29 50.0909C28.5419 50.0909 28.1026 50.2729 27.7786 50.5968C27.4547 50.9207 27.2727 51.3601 27.2727 51.8182C27.2727 52.2763 27.4547 52.7156 27.7786 53.0396C28.1026 53.3635 28.5419 53.5455 29 53.5455C29.4581 53.5455 29.8974 53.3635 30.2214 53.0396C30.5453 52.7156 30.7273 52.2763 30.7273 51.8182C30.7273 51.3601 30.5453 50.9207 30.2214 50.5968C29.8974 50.2729 29.4581 50.0909 29 50.0909ZM35.0438 50.1601C35.0235 50.1599 35.0033 50.1605 34.983 50.1618C34.9254 50.1656 34.8684 50.1752 34.8127 50.1904C34.5915 50.2497 34.4029 50.3945 34.2884 50.5928C34.1739 50.7911 34.1428 51.0268 34.2021 51.248C34.2614 51.4693 34.4061 51.6579 34.6044 51.7724C34.8028 51.8869 35.0385 51.9179 35.2597 51.8587C35.4809 51.7994 35.6695 51.6546 35.784 51.4563C35.8985 51.258 35.9295 51.0223 35.8703 50.801C35.8216 50.6185 35.7144 50.457 35.5651 50.3412C35.4158 50.2254 35.2327 50.1618 35.0438 50.1601ZM22.9579 50.1618C22.7692 50.1634 22.5863 50.2268 22.437 50.3422C22.2877 50.4577 22.1804 50.6188 22.1314 50.801C22.0721 51.0223 22.1032 51.258 22.2177 51.4563C22.3322 51.6546 22.5208 51.7994 22.742 51.8587C22.9632 51.9179 23.1989 51.8869 23.3973 51.7724C23.5956 51.6579 23.7403 51.4693 23.7996 51.248C23.8589 51.0268 23.8278 50.7911 23.7133 50.5928C23.5988 50.3945 23.4102 50.2497 23.189 50.1904C23.1136 50.1705 23.0359 50.1608 22.9579 50.1618Z" fill="#ED1C24"/>
</svg>
