<svg width="64" height="58" viewBox="0 0 64 58" fill="none" xmlns="http://www.w3.org/2000/svg">
<path d="M31.9956 58C31.8454 57.9993 31.6973 57.9648 31.5623 57.899C31.4273 57.8332 31.3088 57.7379 31.2156 57.62L0.215645 18.62C0.0889907 18.4599 0.0143941 18.2648 0.00188039 18.061C-0.0106333 17.8572 0.0395357 17.6544 0.145645 17.48L9.14564 2.48C9.23451 2.33403 9.35929 2.21327 9.5081 2.12924C9.6569 2.04521 9.82476 2.00071 9.99564 2H37.9956V4H10.5656L2.20564 17.92L31.9956 55.4L47.2156 36.4L48.7756 37.65L32.7756 57.65C32.6796 57.7624 32.5598 57.852 32.4249 57.9126C32.2901 57.9731 32.1434 58.0029 31.9956 58ZM54.7656 29.63L53.2156 28.36L61.7656 17.9L53.4256 4H47.9956V2H53.9956C54.1692 2.00003 54.3397 2.04522 54.4905 2.13114C54.6413 2.21705 54.7671 2.34072 54.8556 2.49L63.8556 17.49C63.9626 17.6665 64.0124 17.8718 63.998 18.0777C63.9837 18.2836 63.906 18.48 63.7756 18.64L54.7656 29.63Z" fill="#ED1C24"/>
<path d="M36.9956 17H62.9956V19H36.9956V17ZM0.995636 17H26.9956V19H0.995636V17Z" fill="#ED1C24"/>
<path d="M42.1856 17.406L53.1886 2.41003L54.8016 3.59303L43.7976 18.589L42.1856 17.406Z" fill="#ED1C24"/>
<path d="M31.3186 3.64704L32.9386 2.46704L43.9126 17.533L42.2926 18.713L31.3186 3.64704Z" fill="#ED1C24"/>
<path d="M20.1906 17.403L31.1936 2.40698L32.8066 3.58998L21.8026 18.586L20.1906 17.403Z" fill="#ED1C24"/>
<path d="M9.23865 3.61701L10.8586 2.43701L21.8326 17.503L20.2126 18.683L9.23865 3.61701Z" fill="#ED1C24"/>
<path d="M20.0377 18.271L21.9627 17.728L32.9617 56.727L31.0367 57.27L20.0377 18.271Z" fill="#ED1C24"/>
<path d="M31.0356 56.735L42.0336 17.736L43.9586 18.279L32.9596 57.278L31.0356 56.735ZM41.9956 0H43.9956V6H41.9956V0Z" fill="#ED1C24"/>
<path d="M39.9956 2H45.9956V4H39.9956V2ZM30.9956 15H32.9956V21H30.9956V15Z" fill="#ED1C24"/>
<path d="M28.9956 17H34.9956V19H28.9956V17ZM9.99564 39H11.9956V45H9.99564V39Z" fill="#ED1C24"/>
<path d="M7.99564 41H13.9956V43H7.99564V41ZM49.9956 30H51.9956V36H49.9956V30Z" fill="#ED1C24"/>
<path d="M47.9956 32H53.9956V34H47.9956V32Z" fill="#ED1C24"/>
</svg>
