<svg width="15" height="18" viewBox="0 0 15 18" fill="none" xmlns="http://www.w3.org/2000/svg">
<path opacity="0.3" d="M13.0586 2.2963H9.08338C9.08338 1.305 8.273 0.5 7.27605 0.5C6.27796 0.5 5.46873 1.305 5.46873 2.2963H1.49238C0.892613 2.2963 0.408447 2.77815 0.408447 3.375C0.408447 3.9707 0.892613 4.45255 1.49238 4.45255L2.12191 16.0503C2.17571 17.0025 2.96777 17.75 3.92924 17.75H10.6229C11.5843 17.75 12.3752 17.0025 12.4302 16.0503L13.0586 4.45255C13.6595 4.45255 14.1437 3.9707 14.1437 3.375C14.1437 2.77815 13.6595 2.2963 13.0586 2.2963ZM6.19097 14.1562C6.19097 14.5507 5.8659 14.875 5.46873 14.875C5.07041 14.875 4.74534 14.5507 4.74534 14.1562V6.96875C4.74534 6.57315 5.07041 6.25 5.46873 6.25C5.8659 6.25 6.19097 6.57315 6.19097 6.96875V14.1562ZM9.80562 14.1562C9.80562 14.5507 9.48055 14.875 9.08338 14.875C8.68506 14.875 8.35999 14.5507 8.35999 14.1562V6.96875C8.35999 6.57315 8.68506 6.25 9.08338 6.25C9.48055 6.25 9.80562 6.57315 9.80562 6.96875V14.1562Z" fill="#ED1C24"/>
</svg>
